#VRML V2.0 utf8
# 3D model generated by kicad-lcsc-manager
# Based on easyeda2kicad.py v1.0.1

Shape{
    appearance Appearance {
        material  Material {
            diffuseColor 0.6470588235294118 0.6196078431372549 0.5882352941176471
            specularColor 0.45098039215686275 0.43529411764705883 0.4117647058823529
            ambientIntensity 0.6242
            transparency 0.0
            shininess 0.5
        }
    }
    geometry IndexedFaceSet {
        ccw TRUE
        solid FALSE
        coord DEF co Coordinate {
            point [
                1.5847 -1.5748 0.1929, 1.5847 -1.122 0.1929, 1.5847 -1.122 0.1969, 1.5847 -2.4408 -0.5342, 1.5847 -2.4319 -0.5484, 1.5847 -2.1643 -0.551, 1.5847 -2.6969 0.1969, 1.5847 -2.6969 0.1929, 1.5847 -2.3622 0.1929, 1.5847 -2.1613 -0.5633, 1.5847 -1.7717 0.1929, 1.5847 -2.1654 0.1929, 1.5847 -2.1654 -0.5384, 1.5847 -2.3622 -0.2635, 1.5847 -1.7411 -0.7874, 1.5847 -1.7312 -0.7874, 1.5847 -1.7596 -0.7852, 1.5847 -1.7717 -0.5384, 1.5847 -1.7727 -0.551, 1.5847 -2.3638 -0.2792, 1.5847 -2.3684 -0.2943, 1.5847 -2.4425 -0.469, 1.5847 -2.4474 -0.485, 1.5847 -1.7135 -0.7854, 1.5847 -1.6968 -0.7795, 1.5847 -1.6818 -0.77, 1.5847 -2.2677 -0.7573, 1.5847 -2.2553 -0.77, 1.5847 -2.2402 -0.7795, 1.5847 -1.819 -0.7205, 1.5847 -1.814 -0.7384, 1.5847 -1.777 -0.7788, 1.5847 -1.805 -0.7547, 1.5847 -1.7925 -0.7684, 1.5847 -2.2235 -0.7854, 1.5847 -2.2058 -0.7874, 1.5847 -2.1212 -0.6838, 1.5847 -2.4487 -0.5018, 1.5847 -2.4465 -0.5184, 1.5847 -1.7757 -0.5633, 1.5847 -1.8158 -0.6838, 1.5847 -1.8196 -0.702, 1.5847 -2.1774 -0.7852, 1.5847 -2.123 -0.7384, 1.5847 -2.118 -0.7205, 1.5847 -1.6693 -0.7573, 1.5847 -1.5051 -0.5484, 1.5847 -1.4962 -0.5342, 1.5847 -2.16 -0.7788, 1.5847 -2.1446 -0.7684, 1.5847 -2.132 -0.7547, 1.5847 -2.1959 -0.7874, 1.5847 -2.1174 -0.702, 1.5847 -1.4905 -0.5184, 1.5847 -1.4883 -0.5018, 1.5847 -1.4897 -0.485, 1.5847 -1.5748 -0.2635, 1.5847 -1.5732 -0.2792, 1.5847 -1.5686 -0.2943, 1.5847 -1.4945 -0.469, 1.4666 -1.7717 0.1929, 1.4666 -2.1654 0.1929, 1.4666 -2.6969 0.1969, 1.4666 -1.122 0.1969, 1.4666 -1.122 0.1929, 1.4666 -1.5748 0.1929, 1.4666 -1.7717 -0.5384, 1.4666 -1.5748 -0.2635, 1.4666 -2.6969 0.1929, 1.4666 -2.3622 0.1929, 1.4666 -2.3622 -0.2635, 1.4666 -2.1654 -0.5384, 1.4666 -2.3638 -0.2792, 1.4666 -1.4883 -0.5018, 1.4666 -1.4905 -0.5184, 1.4666 -1.7727 -0.551, 1.4666 -1.7757 -0.5633, 1.4666 -1.7312 -0.7874, 1.4666 -1.8158 -0.6838, 1.4666 -1.7411 -0.7874, 1.4666 -1.4897 -0.485, 1.4666 -1.4962 -0.5342, 1.4666 -1.5051 -0.5484, 1.4666 -1.6693 -0.7573, 1.4666 -1.6818 -0.77, 1.4666 -2.1643 -0.551, 1.4666 -2.4425 -0.469, 1.4666 -2.3684 -0.2943, 1.4666 -1.5732 -0.2792, 1.4666 -1.5686 -0.2943, 1.4666 -1.4945 -0.469, 1.4666 -1.6968 -0.7795, 1.4666 -1.7135 -0.7854, 1.4666 -2.2553 -0.77, 1.4666 -2.2677 -0.7573, 1.4666 -2.1613 -0.5633, 1.4666 -2.4319 -0.5484, 1.4666 -2.4408 -0.5342, 1.4666 -2.4465 -0.5184, 1.4666 -1.7925 -0.7684, 1.4666 -1.805 -0.7547, 1.4666 -1.777 -0.7788, 1.4666 -1.814 -0.7384, 1.4666 -1.819 -0.7205, 1.4666 -2.4487 -0.5018, 1.4666 -2.4474 -0.485, 1.4666 -2.118 -0.7205, 1.4666 -2.123 -0.7384, 1.4666 -2.1774 -0.7852, 1.4666 -2.2058 -0.7874, 1.4666 -2.2235 -0.7854, 1.4666 -2.2402 -0.7795, 1.4666 -1.7596 -0.7852, 1.4666 -1.8196 -0.702, 1.4666 -2.1959 -0.7874, 1.4666 -2.1212 -0.6838, 1.4666 -2.1174 -0.702, 1.4666 -2.132 -0.7547, 1.4666 -2.1446 -0.7684, 1.4666 -2.16 -0.7788, -1.4665 -2.1959 -0.7874, -1.4665 -2.2058 -0.7874, -1.5846 -2.1959 -0.7874, -1.5846 -2.2058 -0.7874, -1.4665 -1.7312 -0.7874, -1.4665 -1.7411 -0.7874, -1.5846 -1.7312 -0.7874, -1.5846 -1.7411 -0.7874, -1.4665 -2.3622 0.1929, -1.4665 -2.6969 0.1929, -1.5846 -2.3622 0.1929, -1.5846 -2.6969 0.1929, -1.5846 -1.5748 0.1929, -1.5846 -1.122 0.1929, -1.4665 -1.5748 0.1929, -1.4665 -1.122 0.1929
            ]
        }
        coordIndex [
            0,1,2,-1,3,4,5,-1,6,7,8,-1,5,4,9,-1,10,6,11,-1,11,6,8,-1,11,8,12,-1,12,8,13,-1,10,14,15,-1,14,10,16,-1,16,10,17,-1,16,17,18,-1,13,19,12,-1,12,19,20,-1,12,20,5,-1,5,20,21,-1,5,21,22,-1,15,23,10,-1,10,23,24,-1,10,24,25,-1,4,26,9,-1,9,26,27,-1,9,27,28,-1,29,30,31,-1,31,30,32,-1,31,32,33,-1,28,34,9,-1,9,34,35,-1,9,35,36,-1,22,37,5,-1,5,37,38,-1,5,38,3,-1,18,39,16,-1,16,39,40,-1,16,40,31,-1,31,40,41,-1,31,41,29,-1,42,43,44,-1,25,45,10,-1,10,45,46,-1,10,46,47,-1,42,48,43,-1,43,48,49,-1,43,49,50,-1,35,51,36,-1,36,51,42,-1,36,42,52,-1,52,42,44,-1,47,53,10,-1,10,53,54,-1,10,54,55,-1,2,6,0,-1,0,6,10,-1,0,10,56,-1,56,10,57,-1,57,10,58,-1,58,10,55,-1,58,55,59,-1,60,61,62,-1,63,64,65,-1,62,63,60,-1,60,63,65,-1,60,65,66,-1,66,65,67,-1,68,62,69,-1,69,62,61,-1,69,61,70,-1,70,61,71,-1,70,71,72,-1,73,74,75,-1,76,77,78,-1,78,77,79,-1,73,75,80,-1,74,81,75,-1,75,81,82,-1,75,82,76,-1,76,82,83,-1,76,83,84,-1,85,86,71,-1,71,86,87,-1,71,87,72,-1,67,88,66,-1,66,88,89,-1,66,89,75,-1,75,89,90,-1,75,90,80,-1,84,91,76,-1,76,91,92,-1,76,92,77,-1,93,94,95,-1,95,94,96,-1,95,96,85,-1,85,96,97,-1,85,97,98,-1,99,100,101,-1,101,100,102,-1,101,102,103,-1,98,104,85,-1,85,104,105,-1,85,105,86,-1,106,107,108,-1,109,110,95,-1,95,110,111,-1,95,111,93,-1,79,112,78,-1,78,112,101,-1,78,101,113,-1,113,101,103,-1,109,95,114,-1,114,95,115,-1,114,115,108,-1,108,115,116,-1,108,116,106,-1,117,118,107,-1,107,118,119,-1,107,119,108,-1,77,15,79,-1,79,15,14,-1,114,51,109,-1,109,51,35,-1,65,64,0,-1,0,64,1,-1,8,7,69,-1,69,7,68,-1,120,121,122,-1,122,121,123,-1,124,125,126,-1,126,125,127,-1,128,129,130,-1,130,129,131,-1,132,133,134,-1,134,133,135,-1,
        ]
    }
}
Shape{
    appearance Appearance {
        material  Material {
            diffuseColor 0.2235294117647059 0.2235294117647059 0.2235294117647059
            specularColor 0.11372549019607843 0.11372549019607843 0.11372549019607843
            ambientIntensity 0.2235
            transparency 0.0
            shininess 0.5
        }
    }
    geometry IndexedFaceSet {
        ccw TRUE
        solid FALSE
        coord DEF co Coordinate {
            point [
                1.3091 -1.6339 1.4075, 1.3091 -1.6339 1.25, 1.4666 -1.6339 1.4075, 1.4666 -1.6339 1.25, -1.5846 -1.6339 1.4075, -1.8996 -1.6339 1.4075, -1.5846 -1.6339 1.25, -1.8996 -1.6339 1.25, -1.5846 -3.5039 0.1969, -1.5846 -3.2042 0.1969, -1.2028 -3.2042 0.1969, -1.5846 -0.6496 0.1969, -1.5846 0.1378 0.1969, -1.2028 0.1378 0.1969, -0.7283 -0.4528 0.1969, -0.4592 -0.4528 0.1969, -0.4592 -3.1954 0.1969, 1.4666 -2.6969 0.1969, 1.5847 -2.6969 0.1969, 1.5847 -3.1954 0.1969, -0.0511 -3.2042 0.1969, 0.0079 -3.2042 0.1969, -0.0336 -3.2067 0.1969, 0.0079 -3.2067 0.1969, 0.1152 -3.4227 0.1969, 0.1152 -3.5571 0.1969, 0.0079 -3.4227 0.1969, 0.0079 -3.5571 0.1969, -0.024 -3.4227 0.1969, -0.0432 -3.5571 0.1969, -0.024 -3.3795 0.1969, -0.0336 -3.2499 0.1969, 0.0079 -3.3795 0.1969, 0.0079 -3.2499 0.1969, 0.1152 -3.3795 0.1969, 0.1152 -3.2499 0.1969, -0.0511 -3.6028 0.1969, -0.0432 -3.6004 0.1969, 0.0079 -3.6028 0.1969, 0.0079 -3.6004 0.1969, 0.1681 -3.6004 0.1969, 0.1681 -3.2067 0.1969, 0.2065 -3.2042 0.1969, 0.2065 -3.6028 0.1969, -0.446 -0.0081 0.1969, -0.4448 -0.0052 0.1969, -0.4527 -0.0591 0.1969, -0.4527 -0.4528 0.1969, -0.059 -3.189 0.1969, -0.0511 -3.1954 0.1969, -0.4448 -3.189 0.1969, -0.4448 -3.1954 0.1969, -0.4527 -3.189 0.1969, -0.4527 -0.6496 0.1969, -0.4448 -0.6496 0.1969, -0.3951 0.0801 0.1969, -0.3543 0.1114 0.1969, -0.059 -0.6496 0.1969, -0.3068 0.1311 0.1969, -0.2559 0.1378 0.1969, -0.0511 0.1378 0.1969, -0.4264 0.0394 0.1969, 1.5847 -0.6496 0.1969, 1.5847 -1.122 0.1969, 1.4666 -1.122 0.1969, 0.5546 -3.1954 0.1969, 0.5546 -0.4528 0.1969, 0.7284 -0.4528 0.1969, 1.5847 0.1378 0.1969, 0.7284 -0.0591 0.1969, 0.9252 0.1378 0.1969, 0.7547 0.0394 0.1969, 0.786 0.0801 0.1969, 0.8268 0.1114 0.1969, 0.7351 -0.0081 0.1969, 0.8743 0.1311 0.1969, 0.2065 -3.1954 0.1969, 0.4528 -3.189 0.1969, 0.2065 -3.189 0.1969, 0.4528 -0.6496 0.1969, 0.4528 -0.4528 0.1969, 0.2065 -0.6496 0.1969, 0.4528 -0.0591 0.1969, 0.4461 -0.0081 0.1969, 0.2559 0.1378 0.1969, 0.3069 0.1311 0.1969, 0.3544 0.1114 0.1969, 0.3951 0.0801 0.1969, 0.4264 0.0394 0.1969, -1.2028 -3.1954 0.1969, -0.9252 0.1378 0.1969, -0.7283 -0.0591 0.1969, -0.8742 0.1311 0.1969, -0.8268 0.1114 0.1969, -0.786 0.0801 0.1969, -0.7547 0.0394 0.1969, -0.735 -0.0081 0.1969, -1.5846 -3.1954 0.1969, -1.5846 -2.6969 0.1969, -1.4665 -2.6969 0.1969, -1.4665 -1.122 0.1969, -1.5846 -1.122 0.1969, -1.4858 -3.6028 0.1969, 0.5714 -3.5571 0.1969, 0.5714 -3.6004 0.1969, 0.5546 -3.6028 0.1969, 0.773 -3.6004 0.1969, 0.773 -3.2067 0.1969, 1.5847 -3.2042 0.1969, 1.5847 -3.5039 0.1969, 1.4859 -3.6028 0.1969, 1.3091 -3.7795 0.1969, 0.5546 -3.7795 0.1969, 0.2065 0.1378 0.1969, 0.0079 0.1378 0.1969, 0.0591 -3.189 0.1969, 0.0079 -3.1954 0.1969, 0.0591 -0.6496 0.1969, 0.2449 -3.5367 0.1969, 0.2449 -3.5799 0.1969, 0.2868 -3.5972 0.1969, 0.3027 -3.2042 0.1969, 0.2904 -3.2051 0.1969, 0.2449 -3.2175 0.1969, 0.2449 -3.2703 0.1969, 0.2892 -3.2513 0.1969, 0.2519 -3.5406 0.1969, 0.3371 -3.2451 0.1969, 0.3758 -3.2494 0.1969, 0.4053 -3.26 0.1969, 0.4326 -3.2783 0.1969, 0.4563 -3.3045 0.1969, 0.4849 -3.4077 0.1969, 0.481 -3.4503 0.1969, 0.4703 -3.4842 0.1969, 0.3827 -3.5578 0.1969, 0.3459 -3.5619 0.1969, 0.4113 -3.5473 0.1969, 0.4355 -3.531 0.1969, 0.454 -3.5115 0.1969, 0.2937 -3.5561 0.1969, 0.4726 -3.3349 0.1969, 0.4831 -3.3771 0.1969, 0.4399 -3.587 0.1969, 0.4716 -3.5668 0.1969, 0.4939 -3.2735 0.1969, 0.4584 -3.2394 0.1969, 0.5546 -3.2042 0.1969, 0.421 -3.2178 0.1969, 0.5378 -3.4109 0.1969, 0.5321 -3.355 0.1969, 0.517 -3.3103 0.1969, 0.3771 -3.2051 0.1969, 0.3669 -3.2042 0.1969, 0.3375 -3.2018 0.1969, 0.5011 -3.5356 0.1969, 0.5221 -3.4982 0.1969, 0.534 -3.4565 0.1969, 0.7202 -3.2067 0.1969, 0.7202 -3.5571 0.1969, 0.3266 -3.6028 0.1969, 0.3424 -3.605 0.1969, 0.2065 -3.7795 0.1969, 0.3532 -3.6052 0.1969, 0.3764 -3.6028 0.1969, 0.4017 -3.6001 0.1969, -1.2028 -3.7795 0.1969, -1.2028 -3.6028 0.1969, -0.4592 -3.7795 0.1969, -0.4592 -3.6028 0.1969, -0.4448 -3.7795 0.1969, -0.4448 -3.6028 0.1969, -0.0511 -3.7795 0.1969, 0.0079 -3.7795 0.1969, -0.4172 -3.4924 0.1969, -0.4314 -3.4512 0.1969, -0.4369 -3.3985 0.1969, -0.288 -3.2127 0.1969, -0.4448 -3.2042 0.1969, -0.2311 -3.2067 0.1969, -0.3947 -3.5277 0.1969, -0.3622 -3.5587 0.1969, -0.3211 -3.5826 0.1969, -0.3341 -3.2289 0.1969, -0.3769 -3.2576 0.1969, -0.3773 -3.258 0.1969, -0.4052 -3.2889 0.1969, -0.4235 -3.3227 0.1969, -0.434 -3.3615 0.1969, -0.2758 -3.5961 0.1969, -0.2271 -3.6004 0.1969, -0.12 -3.6004 0.1969, -0.12 -3.2067 0.1969, -0.7634 -3.6004 0.1969, -0.7235 -3.4899 0.1969, -0.5609 -3.4899 0.1969, -0.5233 -3.6004 0.1969, -0.4657 -3.6004 0.1969, -0.4592 -3.2042 0.1969, -0.821 -3.6004 0.1969, -0.6674 -3.2067 0.1969, -0.6145 -3.2067 0.1969, -1.309 -3.7795 0.1969, 0.9252 0.1378 0.3937, 1.4075 0.1378 0.3937, 1.6044 0.1378 1.4075, 1.6044 0.1378 0.3937, 1.4075 0.1378 1.4075, 1.8996 0.1378 0.0, 1.5847 0.1378 0.0, 1.8996 0.1378 0.3937, 1.6044 0.1378 1.8799, 1.4075 0.1378 1.8799, 1.6044 0.1378 2.6969, 1.4075 0.1378 2.8937, 0.9252 0.1378 2.8937, 0.9252 0.1378 3.0906, 1.8996 0.1378 3.0906, 1.8996 0.1378 2.6969, 0.7351 -0.0081 0.3937, 0.7284 -0.0591 0.3937, 0.7284 -0.4528 0.3937, 1.4075 -0.4528 0.3937, 0.8743 0.1311 0.3937, 0.8268 0.1114 0.3937, 0.786 0.0801 0.3937, 0.7547 0.0394 0.3937, 1.4075 -0.4528 2.8937, 0.7284 -0.4528 2.8937, 0.7284 -0.0591 2.8937, 0.7547 0.0394 2.8937, 0.786 0.0801 2.8937, 0.8268 0.1114 2.8937, 0.7351 -0.0081 2.8937, 0.8743 0.1311 2.8937, 0.2559 0.1378 0.3937, -0.2559 0.1378 0.3937, -0.0984 0.1378 2.8937, -0.2559 0.1378 2.8937, -0.0984 0.1378 2.9016, -0.2559 0.1378 3.0906, 0.0984 0.1378 2.9016, 0.2559 0.1378 3.0906, 0.0984 0.1378 2.8937, 0.2559 0.1378 2.8937, -0.4527 -0.0591 0.3937, -0.4527 -0.4528 0.3937, -0.0984 -0.4528 0.3937, -0.0984 -0.6496 0.3937, 0.0984 -0.6496 0.3937, 0.0984 -0.4528 0.3937, 0.3544 0.1114 0.3937, 0.3069 0.1311 0.3937, 0.4528 -0.4528 0.3937, 0.4528 -0.0591 0.3937, 0.4461 -0.0081 0.3937, 0.4264 0.0394 0.3937, 0.3951 0.0801 0.3937, -0.3068 0.1311 0.3937, -0.3543 0.1114 0.3937, -0.3951 0.0801 0.3937, -0.4264 0.0394 0.3937, -0.446 -0.0081 0.3937, -0.0984 -0.4528 2.8937, -0.3068 0.1311 2.8937, -0.4527 -0.4528 2.8937, -0.4527 -0.0591 2.8937, -0.446 -0.0081 2.8937, -0.4264 0.0394 2.8937, -0.3951 0.0801 2.8937, -0.3543 0.1114 2.8937, 1.4075 -0.4528 1.8799, 0.4528 -0.4528 2.8937, 0.4528 -0.4528 3.0906, 0.7284 -0.4528 3.0906, 1.4075 -0.4528 1.4075, 1.3091 -0.4528 1.4075, 0.0984 -0.4528 0.8103, 0.1575 -0.4528 0.8103, 1.0236 -0.4528 1.7618, 1.3091 -0.4528 1.8799, 1.0236 -0.4528 1.5295, 0.4646 -0.4528 2.3602, 0.0984 -0.4528 2.8937, 0.7166 -0.4528 2.3602, 0.7166 -0.4528 0.9272, 0.7166 -0.4528 1.1791, 0.1575 -0.4528 1.5295, 0.4646 -0.4528 1.1791, 0.4646 -0.4528 0.9272, 0.0984 -0.4528 2.485, 0.1575 -0.4528 2.485, 0.1575 -0.4528 1.7618, 0.4646 -0.4528 2.1083, 0.7166 -0.4528 2.1083, 0.4528 -0.0591 2.8937, 0.3069 0.1311 2.8937, 0.3544 0.1114 2.8937, 0.3951 0.0801 2.8937, 0.4264 0.0394 2.8937, 0.4461 -0.0081 2.8937, 1.0236 0.1378 1.5295, 0.1575 0.1378 1.5295, 1.0236 0.1378 1.7618, 0.1575 0.1378 1.7618, -1.5846 0.1378 0.0, -1.8996 0.1378 0.0, -1.8996 0.1378 0.3937, -1.6043 0.1378 0.3937, -0.9252 0.1378 0.3937, -1.4075 0.1378 0.3937, -1.6043 0.1378 1.4075, -1.4075 0.1378 1.4075, -1.309 -3.189 2.0374, -1.309 -1.6339 2.0374, -1.309 -1.6339 1.8799, -1.309 -3.189 0.5906, -1.309 -3.7795 0.5906, -1.309 -3.189 1.25, -1.309 -3.7795 2.8543, -1.309 -3.189 2.8543, -1.309 -0.4528 1.8799, -1.309 -0.4528 1.4075, -1.309 -1.6339 1.4075, -1.309 -1.6339 1.25, 1.3091 -3.189 1.25, 1.3091 -3.189 2.8543, 1.3091 -3.7795 2.8543, 1.3091 -3.189 2.0374, 1.3091 -3.7795 0.5906, 1.3091 -3.189 0.5906, 1.3091 -1.6339 1.8799, 1.3091 -1.6339 2.0374, -0.9252 0.1378 3.0906, -0.9252 0.1378 2.8937, -1.8996 0.1378 3.0906, -1.4075 0.1378 2.8937, -1.8996 0.1378 2.6969, -1.6043 0.1378 2.6969, -1.6043 0.1378 1.8799, -1.4075 0.1378 1.8799, 1.8996 -3.189 0.5906, 1.8996 -3.189 0.3543, 1.8996 -0.6496 0.3543, 1.8996 -3.189 2.8543, 1.8996 -3.189 2.0374, 1.8996 -1.6339 2.0374, 1.8996 -3.189 3.0906, 1.8996 -1.6339 1.8799, 1.8996 -0.6496 1.8799, 1.8996 -0.6496 0.0, 1.8996 -0.0984 0.3937, 1.8996 -0.6496 1.4075, 1.8996 -1.6339 1.4075, 1.8996 -1.6339 1.25, 1.8996 -3.189 1.25, 1.8996 -0.0984 2.6969, 1.6044 -0.0984 1.4075, 1.6044 -0.6496 1.4075, 1.6044 -0.0984 1.8799, 1.6044 -0.6496 1.8799, 1.3091 -3.7795 3.0906, -1.8996 -3.189 1.25, -1.8996 -3.189 0.5906, -1.8996 -3.189 0.3543, -0.3937 -2.6076 3.0906, 0.3937 -2.6076 3.0906, 0.7351 -0.0081 3.0906, 0.7284 -0.0591 3.0906, 0.3937 -3.5827 3.0906, -0.3937 -3.5827 3.0906, 0.8743 0.1311 3.0906, 0.8268 0.1114 3.0906, -1.8996 -3.189 3.0906, -1.309 -3.7795 3.0906, -0.446 -0.0081 3.0906, -0.4527 -0.0591 3.0906, -0.4527 -0.4528 3.0906, -0.7283 -0.0591 3.0906, -0.7283 -0.4528 3.0906, 0.786 0.0801 3.0906, 0.7547 0.0394 3.0906, -0.3543 0.1114 3.0906, -0.3951 0.0801 3.0906, -0.4264 0.0394 3.0906, 0.3951 0.0801 3.0906, 0.3544 0.1114 3.0906, 0.4264 0.0394 3.0906, 0.4461 -0.0081 3.0906, 0.4528 -0.0591 3.0906, 0.3069 0.1311 3.0906, -0.3068 0.1311 3.0906, -0.735 -0.0081 3.0906, -0.8742 0.1311 3.0906, -0.7547 0.0394 3.0906, -0.786 0.0801 3.0906, -0.8268 0.1114 3.0906, -1.8996 -0.0984 0.3937, -1.8996 -3.189 2.8543, -1.8996 -0.6496 0.3543, -1.8996 -0.6496 1.4075, -1.8996 -0.6496 0.0, -1.8996 -0.0984 2.6969, -1.8996 -0.6496 1.8799, -1.8996 -1.6339 1.8799, -1.8996 -1.6339 2.0374, -1.8996 -3.189 2.0374, -0.0787 -3.7795 1.7224, 0.0788 -3.7795 0.5413, 0.0788 -3.7795 1.565, -0.0787 -3.7795 2.7461, 0.0788 -3.7795 1.7224, 0.0788 -3.7795 2.7461, 1.1024 -3.7795 1.7224, 1.1024 -3.7795 1.565, -1.1023 -3.7795 1.7224, -1.1023 -3.7795 2.7461, -1.1023 -3.7795 0.5413, -1.1023 -3.7795 1.565, -0.0787 -3.7795 1.565, -0.0787 -3.7795 0.5413, 1.1024 -3.7795 2.7461, 1.1024 -3.7795 0.5413, 0.3937 -2.6465 3.0954, 0.3937 -2.6829 3.1097, 0.3937 -2.7147 3.1326, 0.3937 -2.7399 3.1626, 0.3937 -2.7569 3.1979, 0.3937 -2.6981 3.6417, 0.3937 -3.0315 3.6417, 0.3937 -2.7627 3.2754, 0.3937 -2.7646 3.2363, -0.3937 -2.7627 3.2754, -0.3937 -2.6981 3.6417, -0.3937 -2.7646 3.2363, -0.3937 -2.7569 3.1979, -0.3937 -2.7399 3.1626, -0.3937 -2.7147 3.1326, -0.3937 -2.6829 3.1097, -0.3937 -2.6465 3.0954, -0.3937 -3.0315 3.6417, -1.5846 -0.6496 0.0, 0.0591 -0.6496 0.0, 0.0591 -3.189 0.0, 0.4528 -0.6496 0.0, 0.4528 -3.189 0.0, -1.4075 -0.4528 1.8799, -1.6043 -0.6496 1.8799, -1.6043 -0.0984 1.8799, -1.6043 -0.6496 1.4075, -1.5846 -1.1516 1.4075, -1.4665 -1.6339 1.4075, -1.4665 -1.1516 1.4075, -1.4075 -0.4528 1.4075, -1.6043 -0.0984 1.4075, -1.4665 -1.6339 1.25, -1.4665 -2.6969 1.25, -1.5846 -2.6969 1.25, -1.6043 -0.0984 2.6969, -1.6043 -0.0984 0.3937, 1.5847 -0.6496 0.0, -0.059 -3.189 0.0, -0.059 -0.6496 0.0, -0.4527 -3.189 0.0, -0.4527 -0.6496 0.0, 1.4666 -1.1516 1.4075, 1.5847 -1.6339 1.4075, 1.5847 -1.1516 1.4075, 1.5847 -1.6339 1.25, 1.4666 -2.6969 1.25, 1.5847 -2.6969 1.25, 1.6044 -0.0984 2.6969, 1.6044 -0.0984 0.3937, -1.4075 -0.4528 2.8937, -1.4075 -0.4528 0.3937, -0.7283 -0.4528 0.3937, -0.7283 -0.4528 2.8937, -0.0984 -0.4528 0.8103, -0.1575 -0.4528 0.8103, -1.0236 -0.4528 1.7618, -0.7165 -0.4528 2.1083, -0.1575 -0.4528 1.7618, -0.4645 -0.4528 2.1083, -0.1575 -0.4528 2.485, -0.4645 -0.4528 2.3602, -0.0984 -0.4528 2.485, -0.7165 -0.4528 2.3602, -1.0236 -0.4528 1.5295, -0.7165 -0.4528 0.9272, -0.4645 -0.4528 0.9272, -0.1575 -0.4528 1.5295, -0.4645 -0.4528 1.1791, -0.7165 -0.4528 1.1791, -0.7283 -0.0591 0.3937, -0.735 -0.0081 0.3937, -0.8742 0.1311 0.3937, -0.7547 0.0394 0.3937, -0.786 0.0801 0.3937, -0.8268 0.1114 0.3937, -0.735 -0.0081 2.8937, -0.7283 -0.0591 2.8937, -0.8268 0.1114 2.8937, -0.786 0.0801 2.8937, -0.7547 0.0394 2.8937, -0.8742 0.1311 2.8937, -1.0236 0.1378 1.5295, -1.0236 0.1378 1.7618, -0.1575 0.1378 1.5295, -0.1575 0.1378 1.7618, -0.0984 -0.6496 0.8103, 0.0984 -0.6496 0.8103, 0.1575 -0.6496 0.8103, 0.1575 -0.6496 2.485, 0.0984 -0.6496 2.485, 0.0984 -0.6496 2.9016, -0.0984 -0.6496 2.9016, -0.0984 -0.6496 2.485, -0.1575 -0.6496 2.485, -0.1575 -0.6496 0.8103, -1.1023 -0.8268 0.5413, -1.1023 -0.8268 1.565, -0.0787 -0.8268 1.565, -0.0787 -0.8268 0.5413, -0.7165 -0.8268 1.1791, -0.7165 -0.8268 0.9272, -0.4645 -0.8268 0.9272, -0.4645 -0.8268 1.1791, -0.0787 -0.8268 2.7461, -0.0787 -0.8268 1.7224, -1.1023 -0.8268 1.7224, -1.1023 -0.8268 2.7461, -0.4645 -0.8268 2.3602, -0.7165 -0.8268 2.3602, -0.7165 -0.8268 2.1083, -0.4645 -0.8268 2.1083
            ]
        }
        coordIndex [
            0,1,2,-1,2,1,3,-1,4,5,6,-1,6,5,7,-1,8,9,10,-1,11,12,13,-1,14,15,16,-1,17,18,19,-1,20,21,22,-1,22,21,23,-1,24,25,26,-1,26,25,27,-1,26,27,28,-1,28,27,29,-1,28,29,30,-1,30,29,31,-1,30,31,32,-1,32,31,33,-1,32,33,34,-1,34,33,35,-1,22,31,20,-1,20,31,29,-1,20,29,36,-1,36,29,37,-1,36,37,38,-1,38,37,39,-1,38,39,40,-1,23,21,41,-1,41,21,42,-1,41,42,40,-1,40,42,43,-1,40,43,38,-1,44,45,46,-1,46,45,47,-1,48,49,50,-1,50,49,51,-1,50,51,52,-1,52,51,16,-1,52,16,53,-1,53,16,15,-1,53,15,54,-1,55,56,57,-1,56,58,57,-1,57,58,59,-1,57,59,60,-1,15,47,54,-1,54,47,45,-1,54,45,57,-1,57,45,61,-1,57,61,55,-1,62,63,64,-1,65,66,67,-1,62,67,68,-1,68,67,69,-1,68,69,70,-1,62,64,67,-1,67,64,17,-1,67,17,65,-1,71,72,73,-1,69,74,70,-1,70,74,71,-1,70,71,75,-1,75,71,73,-1,65,76,77,-1,77,76,78,-1,65,77,66,-1,66,77,79,-1,66,79,80,-1,80,79,81,-1,80,81,82,-1,83,84,85,-1,85,86,83,-1,83,86,87,-1,83,87,88,-1,89,13,90,-1,16,89,14,-1,14,89,90,-1,14,90,91,-1,91,90,92,-1,91,92,93,-1,93,94,91,-1,91,94,95,-1,91,95,96,-1,89,97,98,-1,98,99,89,-1,89,99,100,-1,89,100,13,-1,13,100,101,-1,13,101,11,-1,8,10,102,-1,103,104,105,-1,105,104,106,-1,106,107,108,-1,108,109,106,-1,106,109,110,-1,106,110,105,-1,105,110,111,-1,105,111,112,-1,83,82,84,-1,84,82,81,-1,84,81,113,-1,113,81,114,-1,78,76,115,-1,115,76,116,-1,115,116,117,-1,42,118,43,-1,43,118,119,-1,43,119,120,-1,42,121,122,-1,122,123,42,-1,42,123,124,-1,42,124,118,-1,118,124,125,-1,118,125,126,-1,126,125,127,-1,126,127,128,-1,128,129,126,-1,126,129,130,-1,126,130,131,-1,132,133,126,-1,126,133,134,-1,135,136,137,-1,137,136,138,-1,134,139,126,-1,126,139,138,-1,126,138,140,-1,140,138,136,-1,131,141,126,-1,126,141,142,-1,126,142,132,-1,143,144,105,-1,145,146,147,-1,147,146,148,-1,149,150,147,-1,147,150,151,-1,147,151,145,-1,148,152,147,-1,147,152,153,-1,147,153,65,-1,65,153,154,-1,65,154,76,-1,144,155,105,-1,105,155,156,-1,105,156,157,-1,157,149,105,-1,105,149,147,-1,105,147,103,-1,103,147,158,-1,103,158,159,-1,160,161,162,-1,162,161,163,-1,162,163,112,-1,112,163,164,-1,112,164,105,-1,105,164,165,-1,105,165,143,-1,166,167,168,-1,168,167,169,-1,168,169,170,-1,170,169,171,-1,170,171,172,-1,172,171,36,-1,172,36,173,-1,173,36,38,-1,173,38,162,-1,162,38,43,-1,162,43,160,-1,160,43,120,-1,174,171,175,-1,175,171,176,-1,177,178,179,-1,179,178,20,-1,174,180,171,-1,171,180,181,-1,171,181,182,-1,177,183,178,-1,178,183,184,-1,178,184,185,-1,185,186,178,-1,178,186,187,-1,178,187,188,-1,182,189,171,-1,171,189,190,-1,171,190,36,-1,36,190,191,-1,36,191,20,-1,20,191,192,-1,20,192,179,-1,193,194,195,-1,196,197,169,-1,169,197,198,-1,169,198,171,-1,171,198,178,-1,171,178,176,-1,176,178,188,-1,195,196,193,-1,193,196,169,-1,193,169,199,-1,199,169,167,-1,199,167,200,-1,197,201,198,-1,198,201,200,-1,198,200,10,-1,10,200,167,-1,10,167,102,-1,102,167,166,-1,102,166,202,-1,17,19,65,-1,65,19,108,-1,65,108,147,-1,147,108,107,-1,147,107,158,-1,9,97,10,-1,10,97,89,-1,10,89,198,-1,198,89,16,-1,198,16,178,-1,178,16,51,-1,178,51,20,-1,20,51,49,-1,20,49,21,-1,21,49,116,-1,21,116,42,-1,42,116,76,-1,42,76,121,-1,121,76,154,-1,48,57,49,-1,49,57,60,-1,49,60,116,-1,116,60,114,-1,116,114,117,-1,117,114,81,-1,70,203,68,-1,68,203,204,-1,205,206,207,-1,207,206,204,-1,208,209,68,-1,204,206,68,-1,68,206,210,-1,68,210,208,-1,211,212,213,-1,213,212,214,-1,215,216,214,-1,214,216,217,-1,214,217,213,-1,213,217,218,-1,219,220,203,-1,221,222,220,-1,220,222,204,-1,220,204,203,-1,203,223,224,-1,224,225,203,-1,203,225,226,-1,203,226,219,-1,227,228,214,-1,214,228,229,-1,214,229,215,-1,230,231,232,-1,229,233,215,-1,215,233,230,-1,215,230,234,-1,234,230,232,-1,84,113,235,-1,235,113,114,-1,235,114,236,-1,236,114,60,-1,236,60,59,-1,237,238,239,-1,239,238,240,-1,239,240,241,-1,241,240,242,-1,241,242,243,-1,243,242,244,-1,245,246,247,-1,248,249,247,-1,247,249,250,-1,251,252,247,-1,247,252,235,-1,247,235,236,-1,250,253,254,-1,254,255,250,-1,250,255,256,-1,250,256,247,-1,247,256,257,-1,247,257,251,-1,236,258,247,-1,247,258,259,-1,247,259,260,-1,260,261,247,-1,247,261,262,-1,247,262,245,-1,238,237,263,-1,238,263,264,-1,265,266,263,-1,263,266,267,-1,263,267,268,-1,268,269,263,-1,263,269,270,-1,263,270,264,-1,228,227,271,-1,66,80,253,-1,272,273,274,-1,222,221,275,-1,275,221,276,-1,250,277,253,-1,253,277,278,-1,279,280,281,-1,281,280,276,-1,282,283,284,-1,284,283,272,-1,67,66,221,-1,221,66,253,-1,221,253,276,-1,276,253,285,-1,276,285,281,-1,281,285,286,-1,281,286,287,-1,287,286,288,-1,287,288,278,-1,278,288,289,-1,278,289,253,-1,253,289,285,-1,290,283,291,-1,291,283,282,-1,291,282,292,-1,292,282,293,-1,292,293,279,-1,279,293,294,-1,279,294,280,-1,280,294,284,-1,280,284,271,-1,271,284,272,-1,271,272,228,-1,228,272,274,-1,295,272,283,-1,283,243,244,-1,244,296,283,-1,283,296,297,-1,283,297,298,-1,298,299,283,-1,283,299,300,-1,283,300,295,-1,301,281,302,-1,302,281,287,-1,279,303,292,-1,292,303,304,-1,304,303,302,-1,302,303,301,-1,305,306,12,-1,12,306,307,-1,12,307,308,-1,309,90,310,-1,310,90,13,-1,311,312,308,-1,308,312,310,-1,308,310,12,-1,12,310,13,-1,313,314,315,-1,316,317,318,-1,318,317,319,-1,318,319,313,-1,313,319,320,-1,321,322,315,-1,315,322,323,-1,315,323,313,-1,313,323,324,-1,313,324,318,-1,325,1,0,-1,326,327,328,-1,328,327,329,-1,328,329,325,-1,325,329,330,-1,276,280,0,-1,0,280,331,-1,0,331,325,-1,325,331,332,-1,325,332,328,-1,333,334,335,-1,335,334,336,-1,337,335,338,-1,338,335,336,-1,338,336,339,-1,339,336,340,-1,341,342,343,-1,344,345,346,-1,217,347,344,-1,344,346,217,-1,217,346,348,-1,217,348,349,-1,208,210,350,-1,350,210,351,-1,350,351,343,-1,352,353,354,-1,341,343,355,-1,218,217,356,-1,356,217,349,-1,356,349,351,-1,351,349,352,-1,351,352,343,-1,343,352,354,-1,343,354,355,-1,357,358,359,-1,359,358,360,-1,358,352,360,-1,360,352,349,-1,344,326,345,-1,345,326,328,-1,330,341,325,-1,325,341,355,-1,344,347,327,-1,327,347,361,-1,342,341,109,-1,109,341,329,-1,109,329,111,-1,362,363,318,-1,318,363,316,-1,202,317,8,-1,8,317,363,-1,8,363,364,-1,274,365,366,-1,367,368,216,-1,216,368,217,-1,368,274,217,-1,217,274,366,-1,217,366,347,-1,347,366,361,-1,361,366,369,-1,361,369,370,-1,216,371,372,-1,274,273,365,-1,365,273,373,-1,365,373,370,-1,370,373,374,-1,370,374,361,-1,375,376,240,-1,240,376,377,-1,240,377,242,-1,378,335,379,-1,379,335,373,-1,379,373,377,-1,377,373,273,-1,377,273,242,-1,372,380,216,-1,216,380,381,-1,216,381,367,-1,382,383,384,-1,385,386,387,-1,387,386,388,-1,273,389,242,-1,242,389,388,-1,242,388,390,-1,390,388,386,-1,375,240,384,-1,384,240,391,-1,384,391,382,-1,392,393,378,-1,378,393,333,-1,378,333,335,-1,392,394,393,-1,393,394,395,-1,393,395,396,-1,397,307,306,-1,398,373,335,-1,363,362,7,-1,399,364,363,-1,363,7,399,-1,399,7,5,-1,399,5,400,-1,306,401,397,-1,397,401,399,-1,397,399,402,-1,402,399,400,-1,402,400,403,-1,335,337,402,-1,403,404,402,-1,402,404,405,-1,402,405,335,-1,335,405,406,-1,335,406,398,-1,407,408,409,-1,410,411,412,-1,410,407,411,-1,411,407,409,-1,411,409,413,-1,413,409,414,-1,170,172,408,-1,408,172,173,-1,415,416,319,-1,319,416,374,-1,417,418,317,-1,319,317,415,-1,415,317,418,-1,415,418,407,-1,407,418,419,-1,407,419,408,-1,408,419,420,-1,408,420,170,-1,416,410,374,-1,374,410,412,-1,374,412,361,-1,361,412,421,-1,361,421,327,-1,327,421,413,-1,327,413,329,-1,329,413,414,-1,329,414,422,-1,173,162,408,-1,408,162,112,-1,408,112,422,-1,422,112,111,-1,422,111,329,-1,317,202,417,-1,417,202,166,-1,417,166,420,-1,420,166,168,-1,420,168,170,-1,366,423,369,-1,369,423,424,-1,424,425,369,-1,369,425,426,-1,369,426,427,-1,428,429,430,-1,430,429,369,-1,430,369,431,-1,431,369,427,-1,432,433,430,-1,430,433,428,-1,434,435,370,-1,370,435,436,-1,370,436,437,-1,437,438,370,-1,370,438,439,-1,370,439,365,-1,440,433,370,-1,370,433,432,-1,370,432,434,-1,429,428,440,-1,440,428,433,-1,369,429,370,-1,370,429,440,-1,432,430,434,-1,434,430,431,-1,434,431,435,-1,435,431,427,-1,435,427,436,-1,436,427,426,-1,436,426,437,-1,437,426,425,-1,437,425,438,-1,438,425,424,-1,438,424,439,-1,439,424,423,-1,439,423,365,-1,365,423,366,-1,374,373,319,-1,319,373,398,-1,441,305,11,-1,11,305,12,-1,399,401,11,-1,11,401,441,-1,305,441,306,-1,306,441,401,-1,442,443,117,-1,117,443,115,-1,444,442,79,-1,79,442,117,-1,445,444,77,-1,77,444,79,-1,443,445,115,-1,115,445,77,-1,444,445,442,-1,442,445,443,-1,317,316,363,-1,398,320,319,-1,313,320,406,-1,406,320,398,-1,404,315,405,-1,405,315,314,-1,446,447,340,-1,340,447,448,-1,340,448,339,-1,446,321,447,-1,447,321,315,-1,447,315,403,-1,403,315,404,-1,447,403,449,-1,449,403,400,-1,5,4,400,-1,400,4,450,-1,400,450,449,-1,451,323,452,-1,452,323,322,-1,452,322,453,-1,450,452,449,-1,449,452,453,-1,449,453,454,-1,454,453,312,-1,454,312,311,-1,455,324,451,-1,451,324,323,-1,324,455,456,-1,6,7,457,-1,457,7,362,-1,457,362,456,-1,456,362,318,-1,456,318,324,-1,405,314,406,-1,406,314,313,-1,448,447,454,-1,454,447,449,-1,458,338,448,-1,448,338,339,-1,308,459,311,-1,311,459,454,-1,402,337,458,-1,458,337,338,-1,458,448,402,-1,402,448,454,-1,402,454,397,-1,397,454,459,-1,307,397,308,-1,308,397,459,-1,460,350,62,-1,62,350,343,-1,209,460,68,-1,68,460,62,-1,460,209,350,-1,350,209,208,-1,461,462,48,-1,48,462,57,-1,463,461,52,-1,52,461,48,-1,464,463,53,-1,53,463,52,-1,462,464,57,-1,57,464,53,-1,463,464,461,-1,461,464,462,-1,326,344,327,-1,330,329,341,-1,346,345,332,-1,332,345,328,-1,348,346,331,-1,331,346,332,-1,360,349,348,-1,331,280,271,-1,348,331,360,-1,360,331,271,-1,360,271,359,-1,359,271,212,-1,359,212,211,-1,276,0,465,-1,465,0,2,-1,466,353,467,-1,467,353,352,-1,467,352,465,-1,465,352,358,-1,276,465,275,-1,275,465,358,-1,275,358,207,-1,207,358,357,-1,207,357,205,-1,354,353,468,-1,468,353,466,-1,3,1,469,-1,469,1,325,-1,469,325,470,-1,470,325,355,-1,470,355,468,-1,468,355,354,-1,471,359,213,-1,213,359,211,-1,359,471,356,-1,359,356,357,-1,357,356,351,-1,357,351,472,-1,210,206,351,-1,351,206,472,-1,356,471,218,-1,218,471,213,-1,206,205,472,-1,472,205,357,-1,342,109,108,-1,108,19,342,-1,342,19,18,-1,342,18,343,-1,343,18,63,-1,343,63,62,-1,98,364,101,-1,101,364,399,-1,101,399,11,-1,98,97,364,-1,364,97,9,-1,364,9,8,-1,473,446,336,-1,336,446,340,-1,310,312,474,-1,474,312,453,-1,227,214,271,-1,271,214,212,-1,14,475,15,-1,15,475,246,-1,15,246,47,-1,379,377,476,-1,476,377,265,-1,477,247,478,-1,478,247,246,-1,321,446,473,-1,479,480,481,-1,481,480,482,-1,481,482,483,-1,483,482,484,-1,263,485,265,-1,265,485,483,-1,265,483,476,-1,476,483,484,-1,476,484,473,-1,473,484,486,-1,473,486,321,-1,486,480,321,-1,321,480,479,-1,321,479,322,-1,322,479,487,-1,474,453,475,-1,475,453,322,-1,475,322,246,-1,246,322,488,-1,246,488,478,-1,478,488,489,-1,478,489,490,-1,490,489,491,-1,490,491,487,-1,487,491,492,-1,487,492,322,-1,322,492,488,-1,310,474,309,-1,309,474,475,-1,475,493,309,-1,309,493,494,-1,309,494,495,-1,496,497,494,-1,494,497,498,-1,494,498,495,-1,204,222,207,-1,207,222,275,-1,499,500,334,-1,476,473,500,-1,500,473,336,-1,500,336,334,-1,501,502,503,-1,499,334,503,-1,503,334,504,-1,503,504,501,-1,487,479,505,-1,505,479,506,-1,487,505,490,-1,490,505,507,-1,279,281,303,-1,303,281,301,-1,506,479,508,-1,508,479,481,-1,507,505,508,-1,508,505,506,-1,509,248,477,-1,477,248,247,-1,249,510,250,-1,250,510,277,-1,510,511,277,-1,277,511,278,-1,287,278,511,-1,512,291,292,-1,304,302,292,-1,292,302,287,-1,292,287,512,-1,512,287,511,-1,512,513,291,-1,291,513,290,-1,241,243,283,-1,290,513,283,-1,283,513,514,-1,283,514,241,-1,514,515,241,-1,241,515,239,-1,237,239,263,-1,263,239,515,-1,263,515,485,-1,485,515,516,-1,516,517,485,-1,485,517,483,-1,517,518,490,-1,490,518,478,-1,483,517,481,-1,481,517,490,-1,481,490,508,-1,508,490,507,-1,518,509,478,-1,478,509,477,-1,249,248,510,-1,510,248,509,-1,518,517,509,-1,509,517,516,-1,515,514,516,-1,516,514,513,-1,516,513,509,-1,509,513,512,-1,509,512,510,-1,510,512,511,-1,266,265,376,-1,376,265,377,-1,378,379,500,-1,500,379,476,-1,46,47,245,-1,245,47,246,-1,493,475,91,-1,91,475,14,-1,240,238,264,-1,240,264,391,-1,391,264,270,-1,391,270,382,-1,382,270,269,-1,382,269,383,-1,383,269,268,-1,383,268,384,-1,384,268,267,-1,384,267,375,-1,375,267,266,-1,375,266,376,-1,334,333,393,-1,334,393,504,-1,504,393,396,-1,504,396,501,-1,501,396,395,-1,501,395,502,-1,502,395,394,-1,502,394,503,-1,503,394,392,-1,503,392,499,-1,499,392,378,-1,499,378,500,-1,90,309,495,-1,90,495,92,-1,92,495,498,-1,92,498,93,-1,93,498,497,-1,93,497,94,-1,94,497,496,-1,94,496,95,-1,95,496,494,-1,95,494,96,-1,96,494,493,-1,96,493,91,-1,236,59,58,-1,236,58,258,-1,258,58,56,-1,258,56,259,-1,259,56,55,-1,259,55,260,-1,260,55,61,-1,260,61,261,-1,261,61,45,-1,261,45,262,-1,45,44,262,-1,262,44,46,-1,262,46,245,-1,519,520,417,-1,417,520,418,-1,520,521,418,-1,418,521,419,-1,521,522,419,-1,419,522,420,-1,522,519,420,-1,420,519,417,-1,523,520,524,-1,524,520,519,-1,524,519,525,-1,525,519,522,-1,525,522,526,-1,526,522,521,-1,526,521,523,-1,523,521,520,-1,527,528,410,-1,410,528,407,-1,528,529,407,-1,407,529,415,-1,529,530,415,-1,415,530,416,-1,530,527,416,-1,416,527,410,-1,531,527,532,-1,532,527,530,-1,532,530,533,-1,533,530,529,-1,533,529,534,-1,534,529,528,-1,534,528,531,-1,531,528,527,-1,
        ]
    }
}
Shape{
    appearance Appearance {
        material  Material {
            diffuseColor 0.6470588235294118 0.6196078431372549 0.5882352941176471
            specularColor 0.45098039215686275 0.43529411764705883 0.4117647058823529
            ambientIntensity 0.6242
            transparency 0.0
            shininess 0.5
        }
    }
    geometry IndexedFaceSet {
        ccw TRUE
        solid FALSE
        coord DEF co Coordinate {
            point [
                -0.5039 -3.0236 0.9665, -0.5039 -3.0236 1.1398, -0.6771 -3.0236 0.9665, -0.6771 -3.0236 1.1398, -0.4645 -2.8003 1.1791, -0.4645 -0.8268 1.1791, -0.7165 -2.8003 1.1791, -0.7165 -0.8268 1.1791, -0.7165 -2.8003 0.9272, -0.7165 -0.8268 0.9272, -0.4645 -2.8003 0.9272, -0.4645 -0.8268 0.9272, -0.5039 0.689 0.2106, -0.5039 0.689 0.0374, -0.6771 0.689 0.2106, -0.6771 0.689 0.0374, -0.4645 -0.3957 0.8701, -0.4645 -0.1437 0.8701, -0.4645 -0.3976 0.8849, -0.4645 -0.1542 0.9501, -0.4645 -0.4033 0.8986, -0.4645 -0.1851 1.0246, -0.4645 -0.4124 0.9104, -0.4645 -0.2342 1.0886, -0.4645 -0.4242 0.9195, -0.4645 -0.2982 1.1377, -0.4645 -0.438 0.9252, -0.4645 -0.3728 1.1686, -0.4645 -0.4528 0.9272, -0.4645 -0.4528 1.1791, -0.7165 -0.4528 0.9272, -0.7165 -0.438 0.9252, -0.7165 -0.4242 0.9195, -0.7165 -0.4124 0.9104, -0.7165 -0.4033 0.8986, -0.7165 -0.3976 0.8849, -0.7165 -0.3957 0.8701, -0.7165 -0.4528 1.1791, -0.7165 -0.3728 1.1686, -0.7165 -0.2982 1.1377, -0.7165 -0.2342 1.0886, -0.7165 -0.1851 1.0246, -0.7165 -0.1542 0.9501, -0.7165 -0.1437 0.8701, -0.4645 -0.1437 0.3368, -0.4645 -0.3957 0.3368, -0.7165 -0.3957 0.3368, -0.7165 -0.1437 0.3368, -0.4645 -0.1407 0.3143, -0.4645 -0.3841 0.2491, -0.4645 -0.1321 0.2934, -0.4645 -0.3503 0.1674, -0.4645 -0.1183 0.2754, -0.4645 -0.2965 0.0972, -0.4645 -0.1003 0.2616, -0.4645 -0.2263 0.0434, -0.4645 -0.0794 0.253, -0.4645 -0.1446 0.0096, -0.4645 -0.0569 0.25, -0.4645 -0.0569 -0.002, -0.7165 -0.0569 -0.002, -0.7165 -0.1446 0.0096, -0.7165 -0.2263 0.0434, -0.7165 -0.2965 0.0972, -0.7165 -0.3503 0.1674, -0.7165 -0.3841 0.2491, -0.7165 -0.0569 0.25, -0.7165 -0.0794 0.253, -0.7165 -0.1003 0.2616, -0.7165 -0.1183 0.2754, -0.7165 -0.1321 0.2934, -0.7165 -0.1407 0.3143, -0.4645 0.4657 0.25, -0.4645 0.4657 -0.002, -0.7165 0.4657 -0.002, -0.7165 0.4657 0.25, -0.5039 -3.0236 2.1476, -0.5039 -3.0236 2.3209, -0.6771 -3.0236 2.1476, -0.6771 -3.0236 2.3209, -0.4645 -2.8003 2.3602, -0.4645 -0.8268 2.3602, -0.7165 -2.8003 2.3602, -0.7165 -0.8268 2.3602, -0.7165 -2.8003 2.1083, -0.7165 -0.8268 2.1083, -0.4645 -2.8003 2.1083, -0.4645 -0.8268 2.1083, -0.4645 -0.4528 2.1083, -0.4645 0.478 2.1083, -0.4645 -0.4528 2.3602, -0.4645 0.4792 2.3602, -0.7165 -0.4528 2.1083, -0.7165 0.478 2.1083, -0.7165 -0.4528 2.3602, -0.7165 0.4792 2.3602, -0.5039 2.4409 0.2126, -0.5039 2.4409 0.0394, -0.6771 2.4409 0.2126, -0.6771 2.4409 0.0394, -0.4645 0.6581 1.9691, -0.4645 0.9012 2.0356, -0.4645 0.6469 1.9997, -0.4645 0.8749 2.1069, -0.4645 0.6231 2.0377, -0.4645 0.8195 2.1955, -0.4645 0.5912 2.069, -0.4645 0.7449 2.2686, -0.4645 0.5527 2.0919, -0.4645 0.6552 2.3221, -0.4645 0.5099 2.1052, -0.4645 0.5554 2.353, -0.7165 0.5099 2.1052, -0.7165 0.5527 2.0919, -0.7165 0.5912 2.069, -0.7165 0.6231 2.0377, -0.7165 0.6469 1.9997, -0.7165 0.6581 1.9691, -0.7165 0.5554 2.353, -0.7165 0.6552 2.3221, -0.7165 0.7449 2.2686, -0.7165 0.8195 2.1955, -0.7165 0.8749 2.1069, -0.7165 0.9012 2.0356, -0.4645 1.3511 0.3896, -0.4645 1.108 0.3231, -0.7165 1.108 0.3231, -0.7165 1.3511 0.3896, -0.4645 1.3699 0.3447, -0.4645 1.1522 0.2179, -0.4645 1.3996 0.3063, -0.4645 1.222 0.1276, -0.4645 1.4382 0.2768, -0.4645 1.3127 0.0584, -0.4645 1.4832 0.2583, -0.4645 1.4182 0.0148, -0.4645 1.5313 0.252, -0.4645 1.5313 0.0, -0.7165 1.5313 0.0, -0.7165 1.4182 0.0148, -0.7165 1.3127 0.0584, -0.7165 1.222 0.1276, -0.7165 1.1522 0.2179, -0.7165 1.5313 0.252, -0.7165 1.4832 0.2583, -0.7165 1.4382 0.2768, -0.7165 1.3996 0.3063, -0.7165 1.3699 0.3447, -0.4645 2.2177 0.252, -0.4645 2.2177 0.0, -0.7165 2.2177 0.0, -0.7165 2.2177 0.252
            ]
        }
        coordIndex [
            0,1,2,-1,2,1,3,-1,4,5,6,-1,6,5,7,-1,6,7,8,-1,8,7,9,-1,8,9,10,-1,10,9,11,-1,10,11,4,-1,4,11,5,-1,12,13,14,-1,14,13,15,-1,16,17,18,-1,18,17,19,-1,18,19,20,-1,20,19,21,-1,20,21,22,-1,22,21,23,-1,22,23,24,-1,24,23,25,-1,24,25,26,-1,26,25,27,-1,26,27,28,-1,28,27,29,-1,28,30,26,-1,26,30,31,-1,26,31,24,-1,24,31,32,-1,24,32,22,-1,22,32,33,-1,22,33,20,-1,20,33,34,-1,20,34,18,-1,18,34,35,-1,18,35,16,-1,16,35,36,-1,30,37,31,-1,31,37,38,-1,31,38,32,-1,32,38,39,-1,32,39,33,-1,33,39,40,-1,33,40,34,-1,34,40,41,-1,34,41,35,-1,35,41,42,-1,35,42,36,-1,36,42,43,-1,17,43,42,-1,17,42,19,-1,19,42,41,-1,19,41,21,-1,21,41,40,-1,21,40,23,-1,23,40,39,-1,23,39,25,-1,25,39,38,-1,25,38,27,-1,27,38,37,-1,27,37,29,-1,44,17,45,-1,45,17,16,-1,45,16,46,-1,46,16,36,-1,46,36,47,-1,47,36,43,-1,43,17,47,-1,47,17,44,-1,44,45,48,-1,48,45,49,-1,48,49,50,-1,50,49,51,-1,50,51,52,-1,52,51,53,-1,52,53,54,-1,54,53,55,-1,54,55,56,-1,56,55,57,-1,56,57,58,-1,58,57,59,-1,60,59,57,-1,60,57,61,-1,61,57,55,-1,61,55,62,-1,62,55,53,-1,62,53,63,-1,63,53,51,-1,63,51,64,-1,64,51,49,-1,64,49,65,-1,65,49,45,-1,65,45,46,-1,66,60,67,-1,67,60,61,-1,67,61,68,-1,68,61,62,-1,68,62,69,-1,69,62,63,-1,69,63,70,-1,70,63,64,-1,70,64,71,-1,71,64,65,-1,71,65,47,-1,47,65,46,-1,47,44,71,-1,71,44,48,-1,71,48,70,-1,70,48,50,-1,70,50,69,-1,69,50,52,-1,69,52,68,-1,68,52,54,-1,68,54,67,-1,67,54,56,-1,67,56,66,-1,66,56,58,-1,72,58,73,-1,73,58,59,-1,73,59,74,-1,74,59,60,-1,74,60,75,-1,75,60,66,-1,75,66,72,-1,72,66,58,-1,76,77,78,-1,78,77,79,-1,80,81,82,-1,82,81,83,-1,82,83,84,-1,84,83,85,-1,84,85,86,-1,86,85,87,-1,86,87,80,-1,80,87,81,-1,88,89,90,-1,90,89,91,-1,92,93,88,-1,88,93,89,-1,94,95,92,-1,92,95,93,-1,90,91,94,-1,94,91,95,-1,96,97,98,-1,98,97,99,-1,100,101,102,-1,102,101,103,-1,102,103,104,-1,104,103,105,-1,104,105,106,-1,106,105,107,-1,106,107,108,-1,108,107,109,-1,108,109,110,-1,110,109,111,-1,110,111,89,-1,89,111,91,-1,89,93,110,-1,110,93,112,-1,110,112,108,-1,108,112,113,-1,108,113,106,-1,106,113,114,-1,106,114,104,-1,104,114,115,-1,104,115,102,-1,102,115,116,-1,102,116,100,-1,100,116,117,-1,93,95,112,-1,112,95,118,-1,112,118,113,-1,113,118,119,-1,113,119,114,-1,114,119,120,-1,114,120,115,-1,115,120,121,-1,115,121,116,-1,116,121,122,-1,116,122,117,-1,117,122,123,-1,95,91,111,-1,95,111,118,-1,118,111,109,-1,118,109,119,-1,119,109,107,-1,119,107,120,-1,120,107,105,-1,120,105,121,-1,121,105,103,-1,121,103,122,-1,122,103,101,-1,122,101,123,-1,124,101,125,-1,125,101,100,-1,125,100,126,-1,126,100,117,-1,126,117,127,-1,127,117,123,-1,123,101,127,-1,127,101,124,-1,124,125,128,-1,128,125,129,-1,128,129,130,-1,130,129,131,-1,130,131,132,-1,132,131,133,-1,132,133,134,-1,134,133,135,-1,134,135,136,-1,136,135,137,-1,138,137,135,-1,138,135,139,-1,139,135,133,-1,139,133,140,-1,140,133,131,-1,140,131,141,-1,141,131,129,-1,141,129,142,-1,142,129,125,-1,142,125,126,-1,143,138,144,-1,144,138,139,-1,144,139,145,-1,145,139,140,-1,145,140,146,-1,146,140,141,-1,146,141,147,-1,147,141,142,-1,147,142,127,-1,127,142,126,-1,127,124,147,-1,147,124,128,-1,147,128,146,-1,146,128,130,-1,146,130,145,-1,145,130,132,-1,145,132,144,-1,144,132,134,-1,144,134,143,-1,143,134,136,-1,148,136,149,-1,149,136,137,-1,149,137,150,-1,150,137,138,-1,150,138,151,-1,151,138,143,-1,151,143,148,-1,148,143,136,-1,74,15,73,-1,73,15,13,-1,75,14,74,-1,74,14,15,-1,12,72,13,-1,13,72,73,-1,72,12,75,-1,75,12,14,-1,150,99,149,-1,149,99,97,-1,151,98,150,-1,150,98,99,-1,96,148,97,-1,97,148,149,-1,148,96,151,-1,151,96,98,-1,1,4,3,-1,3,4,6,-1,0,10,1,-1,1,10,4,-1,8,2,6,-1,6,2,3,-1,2,8,0,-1,0,8,10,-1,77,80,79,-1,79,80,82,-1,76,86,77,-1,77,86,80,-1,84,78,82,-1,82,78,79,-1,78,84,76,-1,76,84,86,-1,
        ]
    }
}
Shape{
    appearance Appearance {
        material  Material {
            diffuseColor 0.2235294117647059 0.2235294117647059 0.2235294117647059
            specularColor 0.11372549019607843 0.11372549019607843 0.11372549019607843
            ambientIntensity 0.2235
            transparency 0.0
            shininess 0.5
        }
    }
    geometry IndexedFaceSet {
        ccw TRUE
        solid FALSE
        coord DEF co Coordinate {
            point [
                0.7284 -0.0591 2.8937, 0.7284 -0.4528 2.8937, 0.7284 -0.0591 3.0906, 0.7284 -0.4528 3.0906, 0.4528 -0.0591 3.0906, 0.4528 -0.4528 3.0906, 0.4528 -0.0591 2.8937, 0.4528 -0.4528 2.8937, 0.7284 -0.0591 0.1969, 0.7284 -0.4528 0.1969, 0.7284 -0.0591 0.3937, 0.7284 -0.4528 0.3937, 0.4528 -0.0591 0.3937, 0.4528 -0.4528 0.3937, 0.4528 -0.0591 0.1969, 0.4528 -0.4528 0.1969, 0.9252 0.1378 3.0906, 0.9252 0.1378 2.8937, 0.8743 0.1311 2.8937, 0.8743 0.1311 3.0906, 0.8268 0.1114 2.8937, 0.8268 0.1114 3.0906, 0.786 0.0801 2.8937, 0.786 0.0801 3.0906, 0.7547 0.0394 2.8937, 0.7547 0.0394 3.0906, 0.7351 -0.0081 2.8937, 0.7351 -0.0081 3.0906, 0.2559 0.1378 2.8937, 0.2559 0.1378 3.0906, 0.3069 0.1311 3.0906, 0.3069 0.1311 2.8937, 0.3544 0.1114 3.0906, 0.3544 0.1114 2.8937, 0.3951 0.0801 3.0906, 0.3951 0.0801 2.8937, 0.4264 0.0394 3.0906, 0.4264 0.0394 2.8937, 0.4461 -0.0081 3.0906, 0.4461 -0.0081 2.8937, 0.2559 0.1378 0.1969, 0.2559 0.1378 0.3937, 0.3069 0.1311 0.3937, 0.3069 0.1311 0.1969, 0.3544 0.1114 0.3937, 0.3544 0.1114 0.1969, 0.3951 0.0801 0.3937, 0.3951 0.0801 0.1969, 0.4264 0.0394 0.3937, 0.4264 0.0394 0.1969, 0.4461 -0.0081 0.3937, 0.4461 -0.0081 0.1969, 0.9252 0.1378 0.3937, 0.9252 0.1378 0.1969, 0.8743 0.1311 0.1969, 0.8743 0.1311 0.3937, 0.8268 0.1114 0.1969, 0.8268 0.1114 0.3937, 0.786 0.0801 0.1969, 0.786 0.0801 0.3937, 0.7547 0.0394 0.1969, 0.7547 0.0394 0.3937, 0.7351 -0.0081 0.1969, 0.7351 -0.0081 0.3937, 0.0788 -0.8268 0.5413, 0.0788 -0.8268 1.565, 0.0788 -3.7795 0.5413, 0.0788 -3.7795 1.565, 1.1024 -0.8268 1.565, 1.1024 -3.7795 1.565, 1.1024 -0.8268 0.5413, 1.1024 -3.7795 0.5413, 0.4646 -0.8268 1.1791, 0.4646 -0.8268 0.9272, 0.7166 -0.8268 0.9272, 0.7166 -0.8268 1.1791, 1.1024 -0.8268 2.7461, 1.1024 -0.8268 1.7224, 1.1024 -3.7795 2.7461, 1.1024 -3.7795 1.7224, 0.0788 -0.8268 1.7224, 0.0788 -3.7795 1.7224, 0.0788 -0.8268 2.7461, 0.0788 -3.7795 2.7461, 0.7166 -0.8268 2.3602, 0.4646 -0.8268 2.3602, 0.4646 -0.8268 2.1083, 0.7166 -0.8268 2.1083
            ]
        }
        coordIndex [
            0,1,2,-1,2,1,3,-1,4,5,6,-1,6,5,7,-1,8,9,10,-1,10,9,11,-1,12,13,14,-1,14,13,15,-1,16,17,18,-1,16,18,19,-1,19,18,20,-1,19,20,21,-1,21,20,22,-1,21,22,23,-1,23,22,24,-1,23,24,25,-1,25,24,26,-1,25,26,27,-1,27,26,0,-1,27,0,2,-1,28,29,30,-1,28,30,31,-1,31,30,32,-1,31,32,33,-1,33,32,34,-1,33,34,35,-1,35,34,36,-1,35,36,37,-1,37,36,38,-1,37,38,39,-1,39,38,4,-1,39,4,6,-1,40,41,42,-1,40,42,43,-1,43,42,44,-1,43,44,45,-1,45,44,46,-1,45,46,47,-1,47,46,48,-1,47,48,49,-1,49,48,50,-1,49,50,51,-1,51,50,12,-1,51,12,14,-1,52,53,54,-1,52,54,55,-1,55,54,56,-1,55,56,57,-1,57,56,58,-1,57,58,59,-1,59,58,60,-1,59,60,61,-1,61,60,62,-1,61,62,63,-1,63,62,8,-1,63,8,10,-1,64,65,66,-1,66,65,67,-1,65,68,67,-1,67,68,69,-1,68,70,69,-1,69,70,71,-1,70,64,71,-1,71,64,66,-1,72,65,73,-1,73,65,64,-1,73,64,74,-1,74,64,70,-1,74,70,75,-1,75,70,68,-1,75,68,72,-1,72,68,65,-1,76,77,78,-1,78,77,79,-1,77,80,79,-1,79,80,81,-1,80,82,81,-1,81,82,83,-1,82,76,83,-1,83,76,78,-1,84,76,85,-1,85,76,82,-1,85,82,86,-1,86,82,80,-1,86,80,87,-1,87,80,77,-1,87,77,84,-1,84,77,76,-1,
        ]
    }
}
Shape{
    appearance Appearance {
        material  Material {
            diffuseColor 0.6470588235294118 0.6196078431372549 0.5882352941176471
            specularColor 0.45098039215686275 0.43529411764705883 0.4117647058823529
            ambientIntensity 0.6242
            transparency 0.0
            shininess 0.5
        }
    }
    geometry IndexedFaceSet {
        ccw TRUE
        solid FALSE
        coord DEF co Coordinate {
            point [
                0.6772 -3.0236 0.9665, 0.6772 -3.0236 1.1398, 0.504 -3.0236 0.9665, 0.504 -3.0236 1.1398, 0.7166 -2.8003 1.1791, 0.7166 -0.8268 1.1791, 0.4646 -2.8003 1.1791, 0.4646 -0.8268 1.1791, 0.4646 -2.8003 0.9272, 0.4646 -0.8268 0.9272, 0.7166 -2.8003 0.9272, 0.7166 -0.8268 0.9272, 0.6772 0.689 0.2106, 0.6772 0.689 0.0374, 0.504 0.689 0.2106, 0.504 0.689 0.0374, 0.7166 -0.3957 0.8701, 0.7166 -0.1437 0.8701, 0.7166 -0.3976 0.8849, 0.7166 -0.1542 0.9501, 0.7166 -0.4033 0.8986, 0.7166 -0.1851 1.0246, 0.7166 -0.4124 0.9104, 0.7166 -0.2342 1.0886, 0.7166 -0.4242 0.9195, 0.7166 -0.2982 1.1377, 0.7166 -0.438 0.9252, 0.7166 -0.3728 1.1686, 0.7166 -0.4528 0.9272, 0.7166 -0.4528 1.1791, 0.4646 -0.4528 0.9272, 0.4646 -0.438 0.9252, 0.4646 -0.4242 0.9195, 0.4646 -0.4124 0.9104, 0.4646 -0.4033 0.8986, 0.4646 -0.3976 0.8849, 0.4646 -0.3957 0.8701, 0.4646 -0.4528 1.1791, 0.4646 -0.3728 1.1686, 0.4646 -0.2982 1.1377, 0.4646 -0.2342 1.0886, 0.4646 -0.1851 1.0246, 0.4646 -0.1542 0.9501, 0.4646 -0.1437 0.8701, 0.7166 -0.1437 0.3368, 0.7166 -0.3957 0.3368, 0.4646 -0.3957 0.3368, 0.4646 -0.1437 0.3368, 0.7166 -0.1407 0.3143, 0.7166 -0.3841 0.2491, 0.7166 -0.1321 0.2934, 0.7166 -0.3503 0.1674, 0.7166 -0.1183 0.2754, 0.7166 -0.2965 0.0972, 0.7166 -0.1003 0.2616, 0.7166 -0.2263 0.0434, 0.7166 -0.0794 0.253, 0.7166 -0.1446 0.0096, 0.7166 -0.0569 0.25, 0.7166 -0.0569 -0.002, 0.4646 -0.0569 -0.002, 0.4646 -0.1446 0.0096, 0.4646 -0.2263 0.0434, 0.4646 -0.2965 0.0972, 0.4646 -0.3503 0.1674, 0.4646 -0.3841 0.2491, 0.4646 -0.0569 0.25, 0.4646 -0.0794 0.253, 0.4646 -0.1003 0.2616, 0.4646 -0.1183 0.2754, 0.4646 -0.1321 0.2934, 0.4646 -0.1407 0.3143, 0.7166 0.4657 0.25, 0.7166 0.4657 -0.002, 0.4646 0.4657 -0.002, 0.4646 0.4657 0.25, 0.6772 -3.0236 2.1476, 0.6772 -3.0236 2.3209, 0.504 -3.0236 2.1476, 0.504 -3.0236 2.3209, 0.7166 -2.8003 2.3602, 0.7166 -0.8268 2.3602, 0.4646 -2.8003 2.3602, 0.4646 -0.8268 2.3602, 0.4646 -2.8003 2.1083, 0.4646 -0.8268 2.1083, 0.7166 -2.8003 2.1083, 0.7166 -0.8268 2.1083, 0.7166 -0.4528 2.1083, 0.7166 0.478 2.1083, 0.7166 -0.4528 2.3602, 0.7166 0.4792 2.3602, 0.4646 -0.4528 2.1083, 0.4646 0.478 2.1083, 0.4646 -0.4528 2.3602, 0.4646 0.4792 2.3602, 0.6772 2.4409 0.2126, 0.6772 2.4409 0.0394, 0.504 2.4409 0.2126, 0.504 2.4409 0.0394, 0.7166 0.6581 1.9691, 0.7166 0.9012 2.0356, 0.7166 0.6469 1.9997, 0.7166 0.8749 2.1069, 0.7166 0.6231 2.0377, 0.7166 0.8195 2.1955, 0.7166 0.5912 2.069, 0.7166 0.7449 2.2686, 0.7166 0.5527 2.0919, 0.7166 0.6552 2.3221, 0.7166 0.5099 2.1052, 0.7166 0.5554 2.353, 0.4646 0.5099 2.1052, 0.4646 0.5527 2.0919, 0.4646 0.5912 2.069, 0.4646 0.6231 2.0377, 0.4646 0.6469 1.9997, 0.4646 0.6581 1.9691, 0.4646 0.5554 2.353, 0.4646 0.6552 2.3221, 0.4646 0.7449 2.2686, 0.4646 0.8195 2.1955, 0.4646 0.8749 2.1069, 0.4646 0.9012 2.0356, 0.7166 1.3511 0.3896, 0.7166 1.108 0.3231, 0.4646 1.108 0.3231, 0.4646 1.3511 0.3896, 0.7166 1.3699 0.3447, 0.7166 1.1522 0.2179, 0.7166 1.3996 0.3063, 0.7166 1.222 0.1276, 0.7166 1.4382 0.2768, 0.7166 1.3127 0.0584, 0.7166 1.4832 0.2583, 0.7166 1.4182 0.0148, 0.7166 1.5313 0.252, 0.7166 1.5313 0.0, 0.4646 1.5313 0.0, 0.4646 1.4182 0.0148, 0.4646 1.3127 0.0584, 0.4646 1.222 0.1276, 0.4646 1.1522 0.2179, 0.4646 1.5313 0.252, 0.4646 1.4832 0.2583, 0.4646 1.4382 0.2768, 0.4646 1.3996 0.3063, 0.4646 1.3699 0.3447, 0.7166 2.2177 0.252, 0.7166 2.2177 0.0, 0.4646 2.2177 0.0, 0.4646 2.2177 0.252
            ]
        }
        coordIndex [
            0,1,2,-1,2,1,3,-1,4,5,6,-1,6,5,7,-1,6,7,8,-1,8,7,9,-1,8,9,10,-1,10,9,11,-1,10,11,4,-1,4,11,5,-1,12,13,14,-1,14,13,15,-1,16,17,18,-1,18,17,19,-1,18,19,20,-1,20,19,21,-1,20,21,22,-1,22,21,23,-1,22,23,24,-1,24,23,25,-1,24,25,26,-1,26,25,27,-1,26,27,28,-1,28,27,29,-1,28,30,26,-1,26,30,31,-1,26,31,24,-1,24,31,32,-1,24,32,22,-1,22,32,33,-1,22,33,20,-1,20,33,34,-1,20,34,18,-1,18,34,35,-1,18,35,16,-1,16,35,36,-1,30,37,31,-1,31,37,38,-1,31,38,32,-1,32,38,39,-1,32,39,33,-1,33,39,40,-1,33,40,34,-1,34,40,41,-1,34,41,35,-1,35,41,42,-1,35,42,36,-1,36,42,43,-1,17,43,42,-1,17,42,19,-1,19,42,41,-1,19,41,21,-1,21,41,40,-1,21,40,23,-1,23,40,39,-1,23,39,25,-1,25,39,38,-1,25,38,27,-1,27,38,37,-1,27,37,29,-1,44,17,45,-1,45,17,16,-1,45,16,46,-1,46,16,36,-1,46,36,47,-1,47,36,43,-1,43,17,47,-1,47,17,44,-1,44,45,48,-1,48,45,49,-1,48,49,50,-1,50,49,51,-1,50,51,52,-1,52,51,53,-1,52,53,54,-1,54,53,55,-1,54,55,56,-1,56,55,57,-1,56,57,58,-1,58,57,59,-1,60,59,57,-1,60,57,61,-1,61,57,55,-1,61,55,62,-1,62,55,53,-1,62,53,63,-1,63,53,51,-1,63,51,64,-1,64,51,49,-1,64,49,65,-1,65,49,45,-1,65,45,46,-1,66,60,67,-1,67,60,61,-1,67,61,68,-1,68,61,62,-1,68,62,69,-1,69,62,63,-1,69,63,70,-1,70,63,64,-1,70,64,71,-1,71,64,65,-1,71,65,47,-1,47,65,46,-1,47,44,71,-1,71,44,48,-1,71,48,70,-1,70,48,50,-1,70,50,69,-1,69,50,52,-1,69,52,68,-1,68,52,54,-1,68,54,67,-1,67,54,56,-1,67,56,66,-1,66,56,58,-1,72,58,73,-1,73,58,59,-1,73,59,74,-1,74,59,60,-1,74,60,75,-1,75,60,66,-1,75,66,72,-1,72,66,58,-1,76,77,78,-1,78,77,79,-1,80,81,82,-1,82,81,83,-1,82,83,84,-1,84,83,85,-1,84,85,86,-1,86,85,87,-1,86,87,80,-1,80,87,81,-1,88,89,90,-1,90,89,91,-1,92,93,88,-1,88,93,89,-1,94,95,92,-1,92,95,93,-1,90,91,94,-1,94,91,95,-1,96,97,98,-1,98,97,99,-1,100,101,102,-1,102,101,103,-1,102,103,104,-1,104,103,105,-1,104,105,106,-1,106,105,107,-1,106,107,108,-1,108,107,109,-1,108,109,110,-1,110,109,111,-1,110,111,89,-1,89,111,91,-1,89,93,110,-1,110,93,112,-1,110,112,108,-1,108,112,113,-1,108,113,106,-1,106,113,114,-1,106,114,104,-1,104,114,115,-1,104,115,102,-1,102,115,116,-1,102,116,100,-1,100,116,117,-1,93,95,112,-1,112,95,118,-1,112,118,113,-1,113,118,119,-1,113,119,114,-1,114,119,120,-1,114,120,115,-1,115,120,121,-1,115,121,116,-1,116,121,122,-1,116,122,117,-1,117,122,123,-1,95,91,111,-1,95,111,118,-1,118,111,109,-1,118,109,119,-1,119,109,107,-1,119,107,120,-1,120,107,105,-1,120,105,121,-1,121,105,103,-1,121,103,122,-1,122,103,101,-1,122,101,123,-1,124,101,125,-1,125,101,100,-1,125,100,126,-1,126,100,117,-1,126,117,127,-1,127,117,123,-1,123,101,127,-1,127,101,124,-1,124,125,128,-1,128,125,129,-1,128,129,130,-1,130,129,131,-1,130,131,132,-1,132,131,133,-1,132,133,134,-1,134,133,135,-1,134,135,136,-1,136,135,137,-1,138,137,135,-1,138,135,139,-1,139,135,133,-1,139,133,140,-1,140,133,131,-1,140,131,141,-1,141,131,129,-1,141,129,142,-1,142,129,125,-1,142,125,126,-1,143,138,144,-1,144,138,139,-1,144,139,145,-1,145,139,140,-1,145,140,146,-1,146,140,141,-1,146,141,147,-1,147,141,142,-1,147,142,127,-1,127,142,126,-1,127,124,147,-1,147,124,128,-1,147,128,146,-1,146,128,130,-1,146,130,145,-1,145,130,132,-1,145,132,144,-1,144,132,134,-1,144,134,143,-1,143,134,136,-1,148,136,149,-1,149,136,137,-1,149,137,150,-1,150,137,138,-1,150,138,151,-1,151,138,143,-1,151,143,148,-1,148,143,136,-1,74,15,73,-1,73,15,13,-1,75,14,74,-1,74,14,15,-1,12,72,13,-1,13,72,73,-1,72,12,75,-1,75,12,14,-1,150,99,149,-1,149,99,97,-1,151,98,150,-1,150,98,99,-1,96,148,97,-1,97,148,149,-1,148,96,151,-1,151,96,98,-1,1,4,3,-1,3,4,6,-1,0,10,1,-1,1,10,4,-1,8,2,6,-1,6,2,3,-1,2,8,0,-1,0,8,10,-1,77,80,79,-1,79,80,82,-1,76,86,77,-1,77,86,80,-1,84,78,82,-1,82,78,79,-1,78,84,76,-1,76,84,86,-1,
        ]
    }
}
Shape{
    appearance Appearance {
        material  Material {
            diffuseColor 1.0 1.0 1.0
            specularColor 0.8784313725490196 0.8784313725490196 0.8784313725490196
            ambientIntensity 1.0
            transparency 0.0
            shininess 0.5
        }
    }
    geometry IndexedFaceSet {
        ccw TRUE
        solid FALSE
        coord DEF co Coordinate {
            point [
                -0.6674 -3.2067 0.2008, -0.821 -3.6004 0.2008, -0.6674 -3.2067 0.1969, -0.821 -3.6004 0.1969, -0.7634 -3.6004 0.2008, -0.7634 -3.6004 0.1969, -0.7235 -3.4899 0.2008, -0.7235 -3.4899 0.1969, -0.5609 -3.4899 0.2008, -0.5609 -3.4899 0.1969, -0.5233 -3.6004 0.2008, -0.5233 -3.6004 0.1969, -0.4657 -3.6004 0.2008, -0.4657 -3.6004 0.1969, -0.6145 -3.2067 0.2008, -0.6145 -3.2067 0.1969, -0.5742 -3.4467 0.2008, -0.7058 -3.4467 0.2008, -0.6329 -3.2823 0.2008, -0.6367 -3.2686 0.2008, -0.6392 -3.2547 0.2008, -0.6405 -3.2547 0.2008, -0.6431 -3.2686 0.2008, -0.6466 -3.2823 0.2008, -0.5742 -3.4467 0.1969, -0.7058 -3.4467 0.1969, -0.6329 -3.2823 0.1969, -0.6367 -3.2686 0.1969, -0.6392 -3.2547 0.1969, -0.6405 -3.2547 0.1969, -0.6431 -3.2686 0.1969, -0.6466 -3.2823 0.1969, -0.2271 -3.6004 0.2008, -0.12 -3.6004 0.2008, -0.2271 -3.6004 0.1969, -0.12 -3.6004 0.1969, -0.12 -3.2067 0.2008, -0.12 -3.2067 0.1969, -0.2311 -3.2067 0.2008, -0.2311 -3.2067 0.1969, -0.4369 -3.3985 0.2008, -0.4369 -3.3985 0.1969, -0.434 -3.3615 0.1969, -0.434 -3.3615 0.2008, -0.4235 -3.3227 0.1969, -0.4235 -3.3227 0.2008, -0.4052 -3.2889 0.1969, -0.4052 -3.2889 0.2008, -0.3773 -3.258 0.1969, -0.3773 -3.258 0.2008, -0.3769 -3.2576 0.1969, -0.3769 -3.2576 0.2008, -0.3341 -3.2289 0.1969, -0.3341 -3.2289 0.2008, -0.288 -3.2127 0.1969, -0.288 -3.2127 0.2008, -0.2758 -3.5961 0.1969, -0.2758 -3.5961 0.2008, -0.3211 -3.5826 0.1969, -0.3211 -3.5826 0.2008, -0.3622 -3.5587 0.1969, -0.3622 -3.5587 0.2008, -0.3947 -3.5277 0.1969, -0.3947 -3.5277 0.2008, -0.4172 -3.4924 0.1969, -0.4172 -3.4924 0.2008, -0.4314 -3.4512 0.1969, -0.4314 -3.4512 0.2008, -0.3579 -3.3051 0.2008, -0.3387 -3.2848 0.2008, -0.31 -3.2662 0.2008, -0.2775 -3.2548 0.2008, -0.2309 -3.2499 0.2008, -0.1728 -3.2499 0.2008, -0.1728 -3.5571 0.2008, -0.2287 -3.5571 0.2008, -0.2702 -3.5533 0.2008, -0.3034 -3.5429 0.2008, -0.3302 -3.527 0.2008, -0.3523 -3.5052 0.2008, -0.3689 -3.478 0.2008, -0.3805 -3.441 0.2008, -0.3841 -3.3997 0.2008, -0.3807 -3.3605 0.2008, -0.3715 -3.3294 0.2008, -0.2309 -3.2499 0.1969, -0.1728 -3.2499 0.1969, -0.2775 -3.2548 0.1969, -0.31 -3.2662 0.1969, -0.3387 -3.2848 0.1969, -0.3579 -3.3051 0.1969, -0.3715 -3.3294 0.1969, -0.3807 -3.3605 0.1969, -0.3841 -3.3997 0.1969, -0.3805 -3.441 0.1969, -0.3689 -3.478 0.1969, -0.3523 -3.5052 0.1969, -0.3302 -3.527 0.1969, -0.3034 -3.5429 0.1969, -0.2702 -3.5533 0.1969, -0.2287 -3.5571 0.1969, -0.1728 -3.5571 0.1969, -0.0432 -3.5571 0.2008, -0.0432 -3.6004 0.2008, -0.0432 -3.5571 0.1969, -0.0432 -3.6004 0.1969, 0.0079 -3.6004 0.1969, 0.1681 -3.6004 0.2008, 0.1681 -3.6004 0.1969, 0.1681 -3.2067 0.2008, 0.1681 -3.2067 0.1969, 0.0079 -3.2067 0.1969, -0.0336 -3.2067 0.2008, -0.0336 -3.2067 0.1969, -0.0336 -3.2499 0.2008, -0.0336 -3.2499 0.1969, 0.0079 -3.2499 0.1969, 0.1152 -3.2499 0.2008, 0.1152 -3.2499 0.1969, 0.1152 -3.3795 0.2008, 0.1152 -3.3795 0.1969, 0.0079 -3.3795 0.1969, -0.024 -3.3795 0.2008, -0.024 -3.3795 0.1969, -0.024 -3.4227 0.2008, -0.024 -3.4227 0.1969, 0.0079 -3.4227 0.1969, 0.1152 -3.4227 0.2008, 0.1152 -3.4227 0.1969, 0.1152 -3.5571 0.2008, 0.1152 -3.5571 0.1969, 0.0079 -3.5571 0.1969, 0.2449 -3.5367 0.2008, 0.2449 -3.5799 0.2008, 0.2449 -3.5367 0.1969, 0.2449 -3.5799 0.1969, 0.2868 -3.5972 0.2008, 0.3532 -3.6052 0.2008, 0.3532 -3.6052 0.1969, 0.3424 -3.605 0.1969, 0.3424 -3.605 0.2008, 0.3266 -3.6028 0.1969, 0.2868 -3.5972 0.1969, 0.3764 -3.6028 0.1969, 0.4017 -3.6001 0.2008, 0.4017 -3.6001 0.1969, 0.4399 -3.587 0.2008, 0.4399 -3.587 0.1969, 0.4716 -3.5668 0.2008, 0.4716 -3.5668 0.1969, 0.5011 -3.5356 0.2008, 0.5011 -3.5356 0.1969, 0.5221 -3.4982 0.2008, 0.5221 -3.4982 0.1969, 0.534 -3.4565 0.2008, 0.534 -3.4565 0.1969, 0.5378 -3.4109 0.2008, 0.5378 -3.4109 0.1969, 0.3375 -3.2018 0.2008, 0.3375 -3.2018 0.1969, 0.3771 -3.2051 0.2008, 0.3669 -3.2042 0.1969, 0.3771 -3.2051 0.1969, 0.421 -3.2178 0.1969, 0.421 -3.2178 0.2008, 0.4584 -3.2394 0.1969, 0.4584 -3.2394 0.2008, 0.4939 -3.2735 0.1969, 0.4939 -3.2735 0.2008, 0.517 -3.3103 0.1969, 0.517 -3.3103 0.2008, 0.5321 -3.355 0.1969, 0.5321 -3.355 0.2008, 0.3027 -3.2042 0.1969, 0.2904 -3.2051 0.2008, 0.2904 -3.2051 0.1969, 0.2449 -3.2175 0.2008, 0.2449 -3.2175 0.1969, 0.2449 -3.2703 0.2008, 0.2449 -3.2703 0.1969, 0.3371 -3.2451 0.2008, 0.3371 -3.2451 0.1969, 0.2892 -3.2513 0.1969, 0.2892 -3.2513 0.2008, 0.4849 -3.4077 0.2008, 0.4849 -3.4077 0.1969, 0.4831 -3.3771 0.1969, 0.4831 -3.3771 0.2008, 0.4726 -3.3349 0.1969, 0.4726 -3.3349 0.2008, 0.4563 -3.3045 0.1969, 0.4563 -3.3045 0.2008, 0.4326 -3.2783 0.1969, 0.4326 -3.2783 0.2008, 0.4053 -3.26 0.1969, 0.4053 -3.26 0.2008, 0.3758 -3.2494 0.1969, 0.3758 -3.2494 0.2008, 0.3459 -3.5619 0.2008, 0.3459 -3.5619 0.1969, 0.3827 -3.5578 0.1969, 0.3827 -3.5578 0.2008, 0.4113 -3.5473 0.1969, 0.4113 -3.5473 0.2008, 0.4355 -3.531 0.1969, 0.4355 -3.531 0.2008, 0.454 -3.5115 0.1969, 0.454 -3.5115 0.2008, 0.4703 -3.4842 0.1969, 0.4703 -3.4842 0.2008, 0.481 -3.4503 0.1969, 0.481 -3.4503 0.2008, 0.2519 -3.5406 0.1969, 0.2519 -3.5406 0.2008, 0.2937 -3.5561 0.1969, 0.2937 -3.5561 0.2008, 0.5714 -3.5571 0.2008, 0.5714 -3.6004 0.2008, 0.5714 -3.5571 0.1969, 0.5714 -3.6004 0.1969, 0.773 -3.6004 0.2008, 0.773 -3.6004 0.1969, 0.773 -3.2067 0.2008, 0.773 -3.2067 0.1969, 0.7202 -3.2067 0.2008, 0.7202 -3.2067 0.1969, 0.7202 -3.5571 0.2008, 0.7202 -3.5571 0.1969
            ]
        }
        coordIndex [
            0,1,2,-1,2,1,3,-1,1,4,3,-1,3,4,5,-1,4,6,5,-1,5,6,7,-1,6,8,7,-1,7,8,9,-1,8,10,9,-1,9,10,11,-1,10,12,11,-1,11,12,13,-1,12,14,13,-1,13,14,15,-1,14,0,15,-1,15,0,2,-1,16,8,17,-1,17,8,6,-1,18,14,16,-1,16,14,12,-1,16,12,8,-1,8,12,10,-1,18,19,14,-1,14,19,20,-1,14,20,0,-1,0,20,21,-1,0,21,22,-1,22,23,0,-1,0,23,17,-1,0,17,1,-1,1,17,6,-1,1,6,4,-1,16,17,24,-1,24,17,25,-1,18,16,26,-1,26,16,24,-1,18,26,27,-1,18,27,19,-1,19,27,28,-1,19,28,20,-1,21,20,29,-1,29,20,28,-1,21,29,30,-1,21,30,22,-1,22,30,31,-1,22,31,23,-1,17,23,25,-1,25,23,31,-1,32,33,34,-1,34,33,35,-1,33,36,35,-1,35,36,37,-1,36,38,37,-1,37,38,39,-1,40,41,42,-1,40,42,43,-1,43,42,44,-1,43,44,45,-1,45,44,46,-1,45,46,47,-1,47,46,48,-1,47,48,49,-1,49,48,50,-1,49,50,51,-1,51,50,52,-1,51,52,53,-1,53,52,54,-1,53,54,55,-1,55,54,39,-1,55,39,38,-1,32,34,56,-1,32,56,57,-1,57,56,58,-1,57,58,59,-1,59,58,60,-1,59,60,61,-1,61,60,62,-1,61,62,63,-1,63,62,64,-1,63,64,65,-1,65,64,66,-1,65,66,67,-1,67,66,41,-1,67,41,40,-1,45,47,68,-1,68,47,49,-1,68,49,69,-1,69,49,51,-1,69,51,70,-1,70,51,53,-1,70,53,71,-1,71,53,55,-1,71,55,72,-1,72,55,38,-1,72,38,73,-1,73,38,36,-1,73,36,74,-1,74,36,33,-1,74,33,75,-1,75,33,32,-1,75,32,76,-1,76,32,57,-1,76,57,77,-1,77,57,59,-1,77,59,78,-1,78,59,61,-1,78,61,79,-1,79,61,63,-1,79,63,80,-1,80,63,65,-1,80,65,81,-1,81,65,67,-1,81,67,82,-1,82,67,40,-1,82,40,83,-1,83,40,43,-1,83,43,84,-1,84,43,45,-1,84,45,68,-1,72,73,85,-1,85,73,86,-1,72,85,87,-1,72,87,71,-1,71,87,88,-1,71,88,70,-1,70,88,89,-1,70,89,69,-1,69,89,90,-1,69,90,68,-1,68,90,91,-1,68,91,84,-1,84,91,92,-1,84,92,83,-1,83,92,93,-1,83,93,82,-1,82,93,94,-1,82,94,81,-1,81,94,95,-1,81,95,80,-1,80,95,96,-1,80,96,79,-1,79,96,97,-1,79,97,78,-1,78,97,98,-1,78,98,77,-1,77,98,99,-1,77,99,76,-1,76,99,100,-1,76,100,75,-1,74,75,101,-1,101,75,100,-1,73,74,86,-1,86,74,101,-1,102,103,104,-1,104,103,105,-1,105,103,106,-1,106,103,107,-1,106,107,108,-1,107,109,108,-1,108,109,110,-1,110,109,111,-1,111,109,112,-1,111,112,113,-1,112,114,113,-1,113,114,115,-1,115,114,116,-1,116,114,117,-1,116,117,118,-1,117,119,118,-1,118,119,120,-1,120,119,121,-1,121,119,122,-1,121,122,123,-1,122,124,123,-1,123,124,125,-1,125,124,126,-1,126,124,127,-1,126,127,128,-1,127,129,128,-1,128,129,130,-1,130,129,131,-1,131,129,102,-1,131,102,104,-1,107,103,102,-1,102,129,107,-1,107,129,127,-1,107,127,109,-1,114,112,117,-1,117,112,109,-1,117,109,119,-1,119,109,127,-1,119,127,122,-1,122,127,124,-1,132,133,134,-1,134,133,135,-1,135,133,136,-1,137,138,139,-1,137,139,140,-1,140,139,141,-1,140,141,136,-1,136,141,142,-1,136,142,135,-1,138,137,143,-1,143,137,144,-1,143,144,145,-1,145,144,146,-1,145,146,147,-1,147,146,148,-1,147,148,149,-1,149,148,150,-1,149,150,151,-1,151,150,152,-1,151,152,153,-1,153,152,154,-1,153,154,155,-1,155,154,156,-1,155,156,157,-1,158,159,160,-1,160,159,161,-1,161,162,160,-1,160,162,163,-1,160,163,164,-1,164,163,165,-1,164,165,166,-1,166,165,167,-1,166,167,168,-1,168,167,169,-1,168,169,170,-1,170,169,171,-1,170,171,172,-1,172,171,157,-1,172,157,156,-1,159,158,173,-1,173,158,174,-1,173,174,175,-1,175,174,176,-1,175,176,177,-1,176,178,177,-1,177,178,179,-1,180,181,182,-1,180,182,183,-1,183,182,179,-1,183,179,178,-1,184,185,186,-1,184,186,187,-1,187,186,188,-1,187,188,189,-1,189,188,190,-1,189,190,191,-1,191,190,192,-1,191,192,193,-1,193,192,194,-1,193,194,195,-1,195,194,196,-1,195,196,197,-1,197,196,181,-1,197,181,180,-1,198,199,200,-1,198,200,201,-1,201,200,202,-1,201,202,203,-1,203,202,204,-1,203,204,205,-1,205,204,206,-1,205,206,207,-1,207,206,208,-1,207,208,209,-1,209,208,210,-1,209,210,211,-1,211,210,185,-1,211,185,184,-1,132,134,212,-1,132,212,213,-1,213,212,214,-1,213,214,215,-1,215,214,199,-1,215,199,198,-1,201,137,198,-1,198,137,140,-1,198,140,215,-1,215,140,136,-1,215,136,213,-1,213,136,133,-1,213,133,132,-1,178,176,183,-1,183,176,174,-1,183,174,180,-1,180,174,158,-1,180,158,197,-1,197,158,160,-1,197,160,195,-1,195,160,164,-1,195,164,193,-1,193,164,166,-1,193,166,191,-1,191,166,168,-1,191,168,189,-1,189,168,170,-1,189,170,187,-1,187,170,172,-1,187,172,184,-1,184,172,156,-1,184,156,211,-1,211,156,154,-1,211,154,209,-1,209,154,152,-1,209,152,207,-1,207,152,150,-1,207,150,205,-1,205,150,148,-1,205,148,203,-1,203,148,146,-1,203,146,201,-1,201,146,144,-1,201,144,137,-1,216,217,218,-1,218,217,219,-1,217,220,219,-1,219,220,221,-1,220,222,221,-1,221,222,223,-1,222,224,223,-1,223,224,225,-1,224,226,225,-1,225,226,227,-1,226,216,227,-1,227,216,218,-1,224,222,226,-1,226,222,220,-1,226,220,216,-1,216,220,217,-1,
        ]
    }
}
Shape{
    appearance Appearance {
        material  Material {
            diffuseColor 0.2235294117647059 0.2235294117647059 0.2235294117647059
            specularColor 0.11372549019607843 0.11372549019607843 0.11372549019607843
            ambientIntensity 0.2235
            transparency 0.0
            shininess 0.5
        }
    }
    geometry IndexedFaceSet {
        ccw TRUE
        solid FALSE
        coord DEF co Coordinate {
            point [
                -0.5742 -3.4467 0.1969, -0.7058 -3.4467 0.1969, -0.6329 -3.2823 0.1969, -0.6466 -3.2823 0.1969, -0.6367 -3.2686 0.1969, -0.6431 -3.2686 0.1969, -0.6392 -3.2547 0.1969, -0.6405 -3.2547 0.1969, -0.1728 -3.2499 0.1969, -0.1728 -3.5571 0.1969, -0.2309 -3.2499 0.1969, -0.2287 -3.5571 0.1969, -0.2702 -3.5533 0.1969, -0.3841 -3.3997 0.1969, -0.3807 -3.3605 0.1969, -0.3715 -3.3294 0.1969, -0.2775 -3.2548 0.1969, -0.3034 -3.5429 0.1969, -0.3302 -3.527 0.1969, -0.3523 -3.5052 0.1969, -0.3689 -3.478 0.1969, -0.3805 -3.441 0.1969, -0.3579 -3.3051 0.1969, -0.3387 -3.2848 0.1969, -0.31 -3.2662 0.1969
            ]
        }
        coordIndex [
            0,1,2,-1,2,1,3,-1,2,3,4,-1,4,3,5,-1,4,5,6,-1,6,5,7,-1,8,9,10,-1,10,9,11,-1,10,11,12,-1,13,14,10,-1,10,14,15,-1,10,15,16,-1,12,17,10,-1,10,17,18,-1,10,18,19,-1,19,20,10,-1,10,20,21,-1,10,21,13,-1,22,23,15,-1,15,23,24,-1,15,24,16,-1,
        ]
    }
}
Shape{
    appearance Appearance {
        material  Material {
            diffuseColor 0.6470588235294118 0.6196078431372549 0.5882352941176471
            specularColor 0.45098039215686275 0.43529411764705883 0.4117647058823529
            ambientIntensity 0.6242
            transparency 0.0
            shininess 0.5
        }
    }
    geometry IndexedFaceSet {
        ccw TRUE
        solid FALSE
        coord DEF co Coordinate {
            point [
                -1.5846 -2.3622 0.1929, -1.5846 -2.6969 0.1929, -1.5846 -2.6969 0.1969, -1.5846 -1.122 0.1969, -1.5846 -1.122 0.1929, -1.5846 -1.5748 0.1929, -1.5846 -2.1654 0.1929, -1.5846 -1.7717 0.1929, -1.5846 -1.7717 -0.5384, -1.5846 -1.5748 -0.2635, -1.5846 -2.1654 -0.5384, -1.5846 -2.1774 -0.7852, -1.5846 -2.1959 -0.7874, -1.5846 -2.2058 -0.7874, -1.5846 -2.1643 -0.551, -1.5846 -2.1613 -0.5633, -1.5846 -2.1212 -0.6838, -1.5846 -1.8158 -0.6838, -1.5846 -1.7757 -0.5633, -1.5846 -1.7411 -0.7874, -1.5846 -1.7312 -0.7874, -1.5846 -1.4883 -0.5018, -1.5846 -1.4905 -0.5184, -1.5846 -1.7727 -0.551, -1.5846 -1.4897 -0.485, -1.5846 -1.4962 -0.5342, -1.5846 -1.5051 -0.5484, -1.5846 -1.6693 -0.7573, -1.5846 -1.6818 -0.77, -1.5846 -2.2235 -0.7854, -1.5846 -2.2402 -0.7795, -1.5846 -2.2553 -0.77, -1.5846 -1.5732 -0.2792, -1.5846 -1.5686 -0.2943, -1.5846 -1.4945 -0.469, -1.5846 -2.1174 -0.702, -1.5846 -2.118 -0.7205, -1.5846 -2.123 -0.7384, -1.5846 -2.132 -0.7547, -1.5846 -2.1446 -0.7684, -1.5846 -2.16 -0.7788, -1.5846 -1.6968 -0.7795, -1.5846 -1.7135 -0.7854, -1.5846 -1.814 -0.7384, -1.5846 -1.819 -0.7205, -1.5846 -1.8196 -0.702, -1.5846 -2.2677 -0.7573, -1.5846 -2.4319 -0.5484, -1.5846 -2.4408 -0.5342, -1.5846 -1.7596 -0.7852, -1.5846 -1.777 -0.7788, -1.5846 -1.805 -0.7547, -1.5846 -1.7925 -0.7684, -1.5846 -2.4465 -0.5184, -1.5846 -2.4487 -0.5018, -1.5846 -2.4474 -0.485, -1.5846 -2.3622 -0.2635, -1.5846 -2.3638 -0.2792, -1.5846 -2.3684 -0.2943, -1.5846 -2.4425 -0.469, -1.4665 -1.122 0.1929, -1.4665 -1.122 0.1969, -1.4665 -2.6969 0.1969, -1.4665 -2.6969 0.1929, -1.4665 -2.3622 0.1929, -1.4665 -2.3622 -0.2635, -1.4665 -2.1654 -0.5384, -1.4665 -2.1654 0.1929, -1.4665 -1.7717 0.1929, -1.4665 -1.5051 -0.5484, -1.4665 -1.7727 -0.551, -1.4665 -1.7757 -0.5633, -1.4665 -1.5748 0.1929, -1.4665 -1.5748 -0.2635, -1.4665 -1.7717 -0.5384, -1.4665 -1.5732 -0.2792, -1.4665 -2.2677 -0.7573, -1.4665 -2.1613 -0.5633, -1.4665 -2.4319 -0.5484, -1.4665 -2.1643 -0.551, -1.4665 -2.4408 -0.5342, -1.4665 -2.3638 -0.2792, -1.4665 -2.3684 -0.2943, -1.4665 -2.4425 -0.469, -1.4665 -2.4474 -0.485, -1.4665 -1.4962 -0.5342, -1.4665 -1.4905 -0.5184, -1.4665 -1.4883 -0.5018, -1.4665 -1.6968 -0.7795, -1.4665 -1.6818 -0.77, -1.4665 -1.6693 -0.7573, -1.4665 -2.2553 -0.77, -1.4665 -2.2402 -0.7795, -1.4665 -2.2235 -0.7854, -1.4665 -2.4487 -0.5018, -1.4665 -2.4465 -0.5184, -1.4665 -1.4897 -0.485, -1.4665 -1.4945 -0.469, -1.4665 -1.5686 -0.2943, -1.4665 -2.1774 -0.7852, -1.4665 -2.123 -0.7384, -1.4665 -2.118 -0.7205, -1.4665 -1.8196 -0.702, -1.4665 -1.7411 -0.7874, -1.4665 -1.8158 -0.6838, -1.4665 -1.7312 -0.7874, -1.4665 -1.7135 -0.7854, -1.4665 -2.16 -0.7788, -1.4665 -2.1446 -0.7684, -1.4665 -2.132 -0.7547, -1.4665 -2.2058 -0.7874, -1.4665 -2.1959 -0.7874, -1.4665 -2.1212 -0.6838, -1.4665 -2.1174 -0.702, -1.4665 -1.7925 -0.7684, -1.4665 -1.777 -0.7788, -1.4665 -1.805 -0.7547, -1.4665 -1.814 -0.7384, -1.4665 -1.819 -0.7205, -1.4665 -1.7596 -0.7852, -1.5846 -2.6969 1.378, -1.5846 -2.6969 1.25, -1.4665 -2.6969 1.378, -1.4665 -2.6969 1.25, -1.4665 -1.6339 1.4075, -1.4665 -1.1516 1.4075, -1.4665 -1.5157 1.7717, -1.4665 -1.6339 1.25, -1.4665 -2.3031 1.7717, -1.5846 -1.5157 1.7717, -1.5846 -1.1516 1.4075, -1.5846 -2.3031 1.7717, -1.5846 -1.6339 1.4075, -1.5846 -1.6339 1.25, 1.4666 -2.6969 0.1929, 1.5847 -2.6969 0.1929, 1.4666 -2.6969 0.1969, 1.5847 -2.6969 0.1969, 1.5847 -1.122 0.1929, 1.4666 -1.122 0.1929, 1.5847 -1.122 0.1969, 1.4666 -1.122 0.1969, 1.5847 -1.6339 1.4075, 1.5847 -1.1516 1.4075, 1.5847 -1.5157 1.7717, 1.5847 -2.6969 1.25, 1.5847 -1.6339 1.25, 1.5847 -2.6969 1.378, 1.5847 -2.3031 1.7717, 1.4666 -1.5157 1.7717, 1.4666 -1.1516 1.4075, 1.4666 -2.3031 1.7717, 1.4666 -1.6339 1.4075, 1.4666 -2.6969 1.378, 1.4666 -1.6339 1.25, 1.4666 -2.6969 1.25, 1.4666 -2.2058 -0.7874, 1.5847 -2.2058 -0.7874, 1.5847 -2.2235 -0.7854, 1.4666 -2.2235 -0.7854, 1.5847 -2.2402 -0.7795, 1.4666 -2.2402 -0.7795, 1.5847 -2.2553 -0.77, 1.4666 -2.2553 -0.77, 1.5847 -2.2677 -0.7573, 1.4666 -2.2677 -0.7573, 1.5847 -2.4319 -0.5484, 1.4666 -2.4319 -0.5484, 1.5847 -2.4408 -0.5342, 1.4666 -2.4408 -0.5342, 1.5847 -2.4465 -0.5184, 1.4666 -2.4465 -0.5184, 1.5847 -2.4487 -0.5018, 1.4666 -2.4487 -0.5018, 1.5847 -2.4474 -0.485, 1.4666 -2.4474 -0.485, 1.5847 -2.4425 -0.469, 1.4666 -2.4425 -0.469, 1.5847 -2.3684 -0.2943, 1.4666 -2.3684 -0.2943, 1.4666 -2.3638 -0.2792, 1.5847 -2.3638 -0.2792, 1.4666 -2.3622 -0.2635, 1.5847 -2.3622 -0.2635, 1.5847 -2.3622 0.1929, 1.4666 -2.3622 0.1929, 1.4666 -1.6693 -0.7573, 1.5847 -1.6693 -0.7573, 1.5847 -1.6818 -0.77, 1.4666 -1.6818 -0.77, 1.5847 -1.6968 -0.7795, 1.4666 -1.6968 -0.7795, 1.5847 -1.7135 -0.7854, 1.4666 -1.7135 -0.7854, 1.5847 -1.7312 -0.7874, 1.4666 -1.7312 -0.7874, 1.5847 -1.5748 -0.2635, 1.4666 -1.5748 -0.2635, 1.5847 -1.5748 0.1929, 1.4666 -1.5748 0.1929, 1.4666 -1.5732 -0.2792, 1.5847 -1.5732 -0.2792, 1.4666 -1.5686 -0.2943, 1.5847 -1.5686 -0.2943, 1.5847 -1.4945 -0.469, 1.4666 -1.4945 -0.469, 1.5847 -1.4897 -0.485, 1.4666 -1.4897 -0.485, 1.5847 -1.4883 -0.5018, 1.4666 -1.4883 -0.5018, 1.5847 -1.4905 -0.5184, 1.4666 -1.4905 -0.5184, 1.5847 -1.4962 -0.5342, 1.4666 -1.4962 -0.5342, 1.5847 -1.5051 -0.5484, 1.4666 -1.5051 -0.5484, 1.5847 -2.1654 0.1929, 1.4666 -2.1654 0.1929, 1.5847 -1.7717 0.1929, 1.4666 -1.7717 0.1929, 1.5847 -1.7717 -0.5384, 1.4666 -1.7717 -0.5384, 1.4666 -1.7757 -0.5633, 1.5847 -1.7757 -0.5633, 1.4666 -1.7727 -0.551, 1.5847 -1.7727 -0.551, 1.5847 -1.8158 -0.6838, 1.4666 -1.8158 -0.6838, 1.4666 -1.7411 -0.7874, 1.5847 -1.7411 -0.7874, 1.5847 -1.7596 -0.7852, 1.4666 -1.7596 -0.7852, 1.5847 -1.777 -0.7788, 1.4666 -1.777 -0.7788, 1.5847 -1.7925 -0.7684, 1.4666 -1.7925 -0.7684, 1.5847 -1.805 -0.7547, 1.4666 -1.805 -0.7547, 1.5847 -1.814 -0.7384, 1.4666 -1.814 -0.7384, 1.5847 -1.819 -0.7205, 1.4666 -1.819 -0.7205, 1.5847 -1.8196 -0.702, 1.4666 -1.8196 -0.702, 1.4666 -2.1212 -0.6838, 1.5847 -2.1212 -0.6838, 1.5847 -2.1174 -0.702, 1.4666 -2.1174 -0.702, 1.5847 -2.118 -0.7205, 1.4666 -2.118 -0.7205, 1.5847 -2.123 -0.7384, 1.4666 -2.123 -0.7384, 1.5847 -2.132 -0.7547, 1.4666 -2.132 -0.7547, 1.5847 -2.1446 -0.7684, 1.4666 -2.1446 -0.7684, 1.5847 -2.16 -0.7788, 1.4666 -2.16 -0.7788, 1.5847 -2.1774 -0.7852, 1.4666 -2.1774 -0.7852, 1.5847 -2.1959 -0.7874, 1.4666 -2.1959 -0.7874, 1.5847 -2.1613 -0.5633, 1.4666 -2.1613 -0.5633, 1.4666 -2.1654 -0.5384, 1.5847 -2.1654 -0.5384, 1.4666 -2.1643 -0.551, 1.5847 -2.1643 -0.551
            ]
        }
        coordIndex [
            0,1,2,-1,3,4,5,-1,6,3,7,-1,7,3,5,-1,7,5,8,-1,8,5,9,-1,10,11,6,-1,6,11,12,-1,6,12,13,-1,10,14,11,-1,11,14,15,-1,11,15,16,-1,17,18,19,-1,19,18,20,-1,21,22,23,-1,21,23,24,-1,22,25,23,-1,23,25,26,-1,23,26,18,-1,18,26,27,-1,18,27,28,-1,13,29,6,-1,6,29,30,-1,6,30,31,-1,9,32,8,-1,8,32,33,-1,8,33,23,-1,23,33,34,-1,23,34,24,-1,16,35,11,-1,11,35,36,-1,11,36,37,-1,38,39,37,-1,37,39,40,-1,37,40,11,-1,28,41,18,-1,18,41,42,-1,18,42,20,-1,43,44,19,-1,19,44,45,-1,19,45,17,-1,31,46,6,-1,6,46,47,-1,6,47,48,-1,19,49,43,-1,43,49,50,-1,43,50,51,-1,51,50,52,-1,48,53,6,-1,6,53,54,-1,6,54,55,-1,2,3,0,-1,0,3,6,-1,0,6,56,-1,56,6,57,-1,57,6,58,-1,58,6,55,-1,58,55,59,-1,60,4,61,-1,61,4,3,-1,62,63,64,-1,65,66,64,-1,64,66,67,-1,64,67,62,-1,62,67,68,-1,62,68,61,-1,69,70,71,-1,60,61,72,-1,72,61,68,-1,72,68,73,-1,73,68,74,-1,73,74,75,-1,76,77,78,-1,78,77,79,-1,78,79,80,-1,65,81,66,-1,66,81,82,-1,66,82,79,-1,79,82,83,-1,79,83,84,-1,69,85,70,-1,70,85,86,-1,70,86,87,-1,88,89,71,-1,71,89,90,-1,71,90,69,-1,76,91,77,-1,77,91,92,-1,77,92,93,-1,84,94,79,-1,79,94,95,-1,79,95,80,-1,87,96,70,-1,70,96,97,-1,70,97,74,-1,74,97,98,-1,74,98,75,-1,99,100,101,-1,102,103,104,-1,104,103,105,-1,104,105,71,-1,71,105,106,-1,71,106,88,-1,99,107,100,-1,100,107,108,-1,100,108,109,-1,93,110,77,-1,77,110,111,-1,77,111,112,-1,112,111,99,-1,112,99,113,-1,113,99,101,-1,114,115,116,-1,116,115,117,-1,102,118,103,-1,103,118,117,-1,103,117,119,-1,119,117,115,-1,1,63,2,-1,2,63,62,-1,120,121,122,-1,122,121,123,-1,124,125,126,-1,123,127,122,-1,122,127,124,-1,122,124,128,-1,128,124,126,-1,129,130,131,-1,131,130,132,-1,131,132,120,-1,120,132,133,-1,120,133,121,-1,129,131,126,-1,126,131,128,-1,134,135,136,-1,136,135,137,-1,138,139,140,-1,140,139,141,-1,142,143,144,-1,145,146,147,-1,147,146,142,-1,147,142,148,-1,148,142,144,-1,149,150,151,-1,151,150,152,-1,151,152,153,-1,153,152,154,-1,153,154,155,-1,153,155,147,-1,147,155,145,-1,149,151,144,-1,144,151,148,-1,144,143,149,-1,149,143,150,-1,151,153,148,-1,148,153,147,-1,126,125,129,-1,129,125,130,-1,131,120,128,-1,128,120,122,-1,0,56,64,-1,64,56,65,-1,65,56,81,-1,81,56,57,-1,81,57,82,-1,82,57,58,-1,58,59,82,-1,82,59,83,-1,83,59,55,-1,83,55,84,-1,84,55,54,-1,84,54,94,-1,94,54,53,-1,94,53,95,-1,95,53,48,-1,95,48,80,-1,80,48,47,-1,80,47,78,-1,76,46,31,-1,76,31,91,-1,91,31,30,-1,91,30,92,-1,92,30,29,-1,92,29,93,-1,93,29,13,-1,93,13,110,-1,47,46,78,-1,78,46,76,-1,105,20,42,-1,105,42,106,-1,106,42,41,-1,106,41,88,-1,88,41,28,-1,88,28,89,-1,89,28,27,-1,89,27,90,-1,27,26,90,-1,90,26,69,-1,69,26,25,-1,69,25,85,-1,85,25,22,-1,85,22,86,-1,86,22,21,-1,86,21,87,-1,87,21,24,-1,87,24,96,-1,96,24,34,-1,96,34,97,-1,34,33,97,-1,97,33,98,-1,98,33,75,-1,75,33,32,-1,75,32,73,-1,73,32,9,-1,9,5,73,-1,73,5,72,-1,6,7,67,-1,67,7,68,-1,10,6,66,-1,66,6,67,-1,77,15,79,-1,79,15,14,-1,79,14,66,-1,66,14,10,-1,16,15,112,-1,112,15,77,-1,111,12,11,-1,111,11,99,-1,99,11,40,-1,99,40,107,-1,107,40,39,-1,107,39,108,-1,108,39,38,-1,108,38,109,-1,109,38,37,-1,109,37,100,-1,100,37,36,-1,100,36,101,-1,101,36,35,-1,101,35,113,-1,113,35,16,-1,113,16,112,-1,104,17,45,-1,104,45,102,-1,102,45,44,-1,102,44,118,-1,118,44,43,-1,118,43,117,-1,117,43,51,-1,117,51,116,-1,116,51,52,-1,116,52,114,-1,114,52,50,-1,114,50,115,-1,115,50,49,-1,115,49,119,-1,119,49,19,-1,119,19,103,-1,18,17,71,-1,71,17,104,-1,74,8,70,-1,70,8,23,-1,70,23,71,-1,71,23,18,-1,7,8,68,-1,68,8,74,-1,156,157,158,-1,156,158,159,-1,159,158,160,-1,159,160,161,-1,161,160,162,-1,161,162,163,-1,163,162,164,-1,163,164,165,-1,166,167,164,-1,164,167,165,-1,167,166,168,-1,167,168,169,-1,169,168,170,-1,169,170,171,-1,171,170,172,-1,171,172,173,-1,173,172,174,-1,173,174,175,-1,175,174,176,-1,175,176,177,-1,178,179,176,-1,176,179,177,-1,179,178,180,-1,180,178,181,-1,180,181,182,-1,182,181,183,-1,184,185,183,-1,183,185,182,-1,186,187,188,-1,186,188,189,-1,189,188,190,-1,189,190,191,-1,191,190,192,-1,191,192,193,-1,193,192,194,-1,193,194,195,-1,196,197,198,-1,198,197,199,-1,197,196,200,-1,200,196,201,-1,200,201,202,-1,202,201,203,-1,204,205,203,-1,203,205,202,-1,205,204,206,-1,205,206,207,-1,207,206,208,-1,207,208,209,-1,209,208,210,-1,209,210,211,-1,211,210,212,-1,211,212,213,-1,213,212,214,-1,213,214,215,-1,187,186,214,-1,214,186,215,-1,216,217,218,-1,218,217,219,-1,218,219,220,-1,220,219,221,-1,222,223,224,-1,224,223,225,-1,224,225,221,-1,221,225,220,-1,223,222,226,-1,226,222,227,-1,228,229,230,-1,228,230,231,-1,231,230,232,-1,231,232,233,-1,233,232,234,-1,233,234,235,-1,235,234,236,-1,235,236,237,-1,237,236,238,-1,237,238,239,-1,239,238,240,-1,239,240,241,-1,241,240,242,-1,241,242,243,-1,243,242,226,-1,243,226,227,-1,244,245,246,-1,244,246,247,-1,247,246,248,-1,247,248,249,-1,249,248,250,-1,249,250,251,-1,251,250,252,-1,251,252,253,-1,253,252,254,-1,253,254,255,-1,255,254,256,-1,255,256,257,-1,257,256,258,-1,257,258,259,-1,259,258,260,-1,259,260,261,-1,245,244,262,-1,262,244,263,-1,264,265,266,-1,266,265,267,-1,266,267,263,-1,263,267,262,-1,265,264,216,-1,216,264,217,-1,
        ]
    }
}